<?xml version="1.0" encoding="UTF-8"?>
<svg xmlns="http://www.w3.org/2000/svg" xmlns:xlink="http://www.w3.org/1999/xlink" width="187px" height="40px" viewBox="0 0 187 40" version="1.1">
<defs>
<clipPath id="clip1">
  <path d="M 28.386719 5.5625 L 122 5.5625 L 122 28 L 28.386719 28 Z M 28.386719 5.5625 "/>
</clipPath>
<clipPath id="clip2">
  <path d="M 127 5.5625 L 186.660156 5.5625 L 186.660156 34.691406 L 127 34.691406 Z M 127 5.5625 "/>
</clipPath>
<clipPath id="clip3">
  <path d="M 0.113281 0.128906 L 23.523438 0.128906 L 23.523438 40 L 0.113281 40 Z M 0.113281 0.128906 "/>
</clipPath>
</defs>
<g id="surface1">
<g clip-path="url(#clip1)" clip-rule="nonzero">
<path style=" stroke:none;fill-rule:nonzero;fill:rgb(1.176471%,1.176471%,1.176471%);fill-opacity:1;" d="M 32.382812 18.269531 L 32.382812 25.902344 L 33.953125 26.480469 C 33.992188 26.84375 33.957031 27.179688 33.851562 27.488281 C 33.484375 27.449219 33.074219 27.417969 32.617188 27.390625 C 32.164062 27.359375 31.742188 27.34375 31.363281 27.34375 C 30.984375 27.34375 30.519531 27.359375 29.96875 27.390625 C 29.417969 27.417969 28.953125 27.449219 28.570312 27.488281 C 28.53125 27.125 28.542969 26.789062 28.613281 26.480469 C 28.898438 26.441406 29.175781 26.375 29.449219 26.277344 C 29.71875 26.183594 29.984375 26.058594 30.242188 25.902344 L 30.242188 8.617188 L 28.671875 8.042969 C 28.632812 7.675781 28.664062 7.339844 28.773438 7.03125 C 29.140625 7.050781 29.609375 7.085938 30.171875 7.128906 C 30.734375 7.179688 31.234375 7.195312 31.667969 7.175781 L 33.585938 7.003906 C 35.339844 6.871094 36.726562 7.300781 37.753906 8.300781 C 38.78125 9.300781 39.292969 10.730469 39.292969 12.59375 C 39.292969 13.898438 39.054688 14.960938 38.578125 15.773438 C 38.101562 16.59375 37.410156 17.222656 36.5 17.664062 L 36.5 17.777344 C 36.59375 17.855469 36.679688 17.992188 36.757812 18.183594 C 36.828125 18.375 36.894531 18.546875 36.949219 18.699219 C 37.492188 20.390625 37.929688 21.753906 38.265625 22.792969 C 38.597656 23.828125 38.875 24.605469 39.101562 25.125 C 39.324219 25.644531 39.554688 25.996094 39.792969 26.179688 C 40.03125 26.359375 40.324219 26.453125 40.679688 26.453125 L 40.921875 26.421875 C 40.992188 26.574219 41.03125 26.730469 41.046875 26.882812 C 41.058594 27.035156 41.058594 27.191406 41.046875 27.34375 C 40.976562 27.480469 40.847656 27.574219 40.65625 27.632812 C 40.46875 27.691406 40.28125 27.726562 40.097656 27.746094 C 39.914062 27.765625 39.78125 27.777344 39.699219 27.777344 C 38.804688 27.777344 38.0625 27.277344 37.476562 26.277344 C 37.21875 25.835938 36.980469 25.261719 36.757812 24.550781 C 36.53125 23.839844 36.269531 22.96875 35.96875 21.941406 C 35.671875 20.914062 35.269531 19.679688 34.765625 18.238281 C 34.320312 18.296875 33.863281 18.328125 33.402344 18.328125 C 33.226562 18.328125 33.050781 18.320312 32.882812 18.308594 C 32.710938 18.300781 32.546875 18.289062 32.382812 18.269531 Z M 37.292969 12.765625 C 37.292969 11.785156 37.144531 10.96875 36.839844 10.316406 C 36.53125 9.664062 36.121094 9.167969 35.601562 8.832031 C 35.085938 8.496094 34.507812 8.328125 33.871094 8.328125 C 33.640625 8.328125 33.402344 8.359375 33.15625 8.414062 C 32.914062 8.472656 32.652344 8.550781 32.382812 8.644531 L 32.382812 16.945312 C 32.601562 17.019531 32.808594 17.074219 33.015625 17.097656 C 33.21875 17.128906 33.414062 17.144531 33.605469 17.144531 C 34.789062 17.144531 35.699219 16.75 36.335938 15.964844 C 36.976562 15.175781 37.292969 14.109375 37.292969 12.765625 Z M 51.398438 12.96875 L 51.398438 25.960938 C 51.632812 26.152344 51.867188 26.277344 52.113281 26.335938 C 52.359375 26.394531 52.597656 26.460938 52.828125 26.539062 C 52.867188 26.882812 52.832031 27.21875 52.726562 27.546875 C 52.507812 27.605469 52.253906 27.652344 51.957031 27.691406 C 51.667969 27.726562 51.367188 27.746094 51.054688 27.746094 C 50.617188 27.746094 50.238281 27.691406 49.910156 27.574219 L 49.566406 25.441406 L 49.464844 25.441406 C 48.769531 26.328125 48.128906 26.941406 47.535156 27.285156 C 46.945312 27.632812 46.304688 27.804688 45.609375 27.804688 C 44.632812 27.804688 43.929688 27.421875 43.5 26.652344 C 43.074219 25.882812 42.859375 24.828125 42.859375 23.484375 L 42.859375 14.667969 L 41.371094 14.4375 C 41.332031 14.054688 41.363281 13.71875 41.472656 13.429688 C 41.960938 13.332031 42.421875 13.21875 42.847656 13.082031 C 43.277344 12.949219 43.703125 12.804688 44.125 12.652344 C 44.257812 12.671875 44.386719 12.703125 44.511719 12.75 C 44.632812 12.796875 44.761719 12.871094 44.898438 12.96875 L 44.898438 23.050781 C 44.898438 23.859375 44.980469 24.453125 45.152344 24.835938 C 45.320312 25.222656 45.550781 25.476562 45.835938 25.597656 C 46.121094 25.726562 46.445312 25.789062 46.8125 25.789062 C 47.25 25.789062 47.703125 25.605469 48.179688 25.242188 C 48.65625 24.875 49.050781 24.445312 49.363281 23.945312 L 49.363281 14.667969 L 47.875 14.4375 C 47.832031 14.054688 47.867188 13.71875 47.976562 13.429688 C 48.464844 13.332031 48.921875 13.21875 49.347656 13.082031 C 49.777344 12.949219 50.203125 12.804688 50.625 12.652344 C 50.761719 12.671875 50.890625 12.703125 51.011719 12.75 C 51.136719 12.796875 51.265625 12.871094 51.398438 12.96875 Z M 55.191406 23.023438 L 55.394531 26.078125 C 55.675781 26.269531 55.964844 26.402344 56.257812 26.480469 C 56.554688 26.558594 56.882812 26.59375 57.246094 26.59375 C 57.804688 26.59375 58.304688 26.421875 58.738281 26.078125 C 59.171875 25.730469 59.386719 25.175781 59.386719 24.40625 C 59.386719 24.003906 59.308594 23.628906 59.152344 23.28125 C 59 22.9375 58.726562 22.582031 58.339844 22.214844 C 57.949219 21.851562 57.398438 21.4375 56.679688 20.976562 C 55.890625 20.457031 55.28125 19.855469 54.84375 19.171875 C 54.40625 18.492188 54.1875 17.546875 54.1875 16.339844 C 54.1875 15.359375 54.363281 14.585938 54.710938 14.015625 C 55.058594 13.453125 55.507812 13.042969 56.054688 12.792969 C 56.605469 12.546875 57.1875 12.421875 57.800781 12.421875 C 58.332031 12.421875 58.855469 12.492188 59.378906 12.632812 C 59.902344 12.78125 60.367188 12.976562 60.777344 13.226562 C 60.777344 13.324219 60.777344 13.429688 60.785156 13.542969 C 60.792969 13.660156 60.796875 13.765625 60.796875 13.859375 C 60.796875 15.03125 60.667969 16.136719 60.40625 17.175781 C 60.355469 17.191406 60.304688 17.207031 60.253906 17.21875 C 60.207031 17.226562 60.15625 17.230469 60.097656 17.230469 C 59.894531 17.230469 59.691406 17.175781 59.488281 17.058594 L 59.164062 13.949219 C 58.988281 13.871094 58.785156 13.808594 58.554688 13.757812 C 58.324219 13.710938 58.089844 13.6875 57.855469 13.6875 C 57.546875 13.6875 57.238281 13.75 56.933594 13.871094 C 56.628906 14 56.375 14.210938 56.179688 14.507812 C 55.980469 14.804688 55.882812 15.226562 55.882812 15.761719 C 55.882812 16.128906 55.941406 16.472656 56.054688 16.800781 C 56.167969 17.125 56.402344 17.464844 56.75 17.820312 C 57.097656 18.175781 57.617188 18.59375 58.308594 19.074219 C 59.398438 19.804688 60.160156 20.511719 60.601562 21.191406 C 61.042969 21.875 61.265625 22.726562 61.265625 23.742188 C 61.265625 24.722656 61.082031 25.519531 60.710938 26.132812 C 60.347656 26.75 59.867188 27.199219 59.277344 27.488281 C 58.6875 27.777344 58.058594 27.921875 57.394531 27.921875 C 56.75 27.921875 56.15625 27.847656 55.605469 27.707031 C 55.058594 27.5625 54.503906 27.25 53.949219 26.769531 L 53.949219 26.277344 C 53.949219 25.761719 53.972656 25.226562 54.015625 24.675781 C 54.0625 24.132812 54.164062 23.542969 54.316406 22.90625 C 54.394531 22.886719 54.464844 22.878906 54.519531 22.878906 C 54.761719 22.878906 54.988281 22.925781 55.191406 23.023438 Z M 65.726562 5.878906 L 65.726562 14.523438 L 65.828125 14.523438 C 66.4375 13.734375 67.035156 13.179688 67.613281 12.851562 C 68.1875 12.527344 68.707031 12.363281 69.171875 12.363281 C 70.285156 12.363281 71.097656 12.777344 71.609375 13.601562 C 72.117188 14.425781 72.371094 15.511719 72.371094 16.855469 L 72.371094 25.902344 L 73.835938 26.480469 C 73.878906 26.84375 73.84375 27.179688 73.734375 27.488281 C 73.367188 27.449219 72.976562 27.417969 72.554688 27.390625 C 72.132812 27.359375 71.730469 27.34375 71.351562 27.34375 C 70.96875 27.34375 70.554688 27.359375 70.109375 27.390625 C 69.660156 27.417969 69.246094 27.449219 68.863281 27.488281 C 68.824219 27.125 68.835938 26.789062 68.90625 26.480469 C 69.148438 26.402344 69.394531 26.320312 69.640625 26.230469 C 69.882812 26.148438 70.113281 26.039062 70.332031 25.902344 L 70.332031 17.289062 C 70.332031 16.484375 70.242188 15.867188 70.066406 15.445312 C 69.890625 15.023438 69.652344 14.738281 69.351562 14.59375 C 69.054688 14.449219 68.722656 14.378906 68.355469 14.378906 C 67.917969 14.378906 67.46875 14.53125 67 14.839844 C 66.53125 15.148438 66.140625 15.550781 65.828125 16.050781 L 65.828125 25.902344 L 67.191406 26.480469 C 67.234375 26.84375 67.199219 27.179688 67.089844 27.488281 C 66.722656 27.449219 66.347656 27.417969 65.960938 27.390625 C 65.574219 27.359375 65.1875 27.34375 64.808594 27.34375 C 64.425781 27.34375 64.011719 27.359375 63.566406 27.390625 C 63.117188 27.417969 62.703125 27.449219 62.320312 27.488281 C 62.28125 27.125 62.292969 26.789062 62.363281 26.480469 C 62.621094 26.382812 62.875 26.296875 63.128906 26.222656 C 63.378906 26.144531 63.597656 26.039062 63.789062 25.902344 L 63.789062 7.582031 L 62.097656 7.351562 C 62.054688 6.964844 62.089844 6.628906 62.199219 6.339844 C 63.175781 6.128906 64.09375 5.871094 64.949219 5.5625 C 65.085938 5.582031 65.214844 5.617188 65.339844 5.660156 C 65.460938 5.710938 65.589844 5.785156 65.726562 5.878906 Z M 78.320312 12.96875 L 78.320312 25.902344 L 79.6875 26.480469 C 79.726562 26.84375 79.695312 27.179688 79.585938 27.488281 C 79.21875 27.449219 78.84375 27.417969 78.457031 27.390625 C 78.066406 27.359375 77.683594 27.34375 77.304688 27.34375 C 76.921875 27.34375 76.507812 27.359375 76.058594 27.390625 C 75.609375 27.417969 75.195312 27.449219 74.816406 27.488281 C 74.773438 27.125 74.789062 26.789062 74.855469 26.480469 C 75.113281 26.382812 75.371094 26.296875 75.625 26.222656 C 75.875 26.144531 76.09375 26.039062 76.285156 25.902344 L 76.285156 14.667969 L 74.59375 14.4375 C 74.550781 14.054688 74.585938 13.71875 74.695312 13.429688 C 75.183594 13.332031 75.675781 13.21875 76.171875 13.082031 C 76.667969 12.949219 77.125 12.804688 77.546875 12.652344 C 77.683594 12.671875 77.8125 12.703125 77.933594 12.75 C 78.058594 12.796875 78.1875 12.871094 78.320312 12.96875 Z M 76.957031 10.027344 C 76.726562 10.027344 76.515625 9.921875 76.324219 9.710938 C 76.132812 9.5 75.984375 9.242188 75.875 8.933594 C 75.765625 8.625 75.714844 8.339844 75.714844 8.070312 C 75.714844 7.820312 75.789062 7.566406 75.9375 7.308594 C 76.085938 7.046875 76.273438 6.824219 76.5 6.640625 C 76.722656 6.460938 76.941406 6.371094 77.160156 6.371094 C 77.40625 6.371094 77.621094 6.480469 77.8125 6.699219 C 78.003906 6.921875 78.148438 7.179688 78.253906 7.476562 C 78.351562 7.777344 78.402344 8.058594 78.402344 8.328125 C 78.402344 8.578125 78.332031 8.839844 78.191406 9.105469 C 78.046875 9.375 77.863281 9.597656 77.640625 9.769531 C 77.414062 9.941406 77.1875 10.027344 76.957031 10.027344 Z M 83.886719 5.878906 L 83.886719 19.363281 L 84.417969 19.363281 L 87.679688 14.234375 L 86.191406 13.804688 C 86.175781 13.726562 86.167969 13.621094 86.167969 13.488281 C 86.167969 13.257812 86.210938 13.027344 86.292969 12.792969 C 86.660156 12.8125 87 12.84375 87.320312 12.882812 C 87.640625 12.917969 87.992188 12.9375 88.371094 12.9375 C 88.765625 12.9375 89.085938 12.917969 89.335938 12.882812 C 89.589844 12.84375 89.90625 12.8125 90.285156 12.792969 C 90.300781 12.871094 90.308594 12.941406 90.308594 13.007812 C 90.308594 13.078125 90.308594 13.148438 90.308594 13.226562 C 90.308594 13.398438 90.285156 13.59375 90.246094 13.804688 C 90.027344 13.824219 89.769531 13.894531 89.472656 14.015625 C 89.171875 14.144531 88.921875 14.3125 88.71875 14.523438 L 85.945312 18.730469 L 89.714844 25.902344 C 89.839844 26.058594 90.03125 26.183594 90.296875 26.277344 C 90.5625 26.375 90.824219 26.441406 91.082031 26.480469 C 91.082031 26.539062 91.085938 26.589844 91.089844 26.636719 C 91.097656 26.6875 91.101562 26.738281 91.101562 26.796875 C 91.101562 27.027344 91.0625 27.257812 90.980469 27.488281 C 90.585938 27.449219 90.1875 27.421875 89.785156 27.402344 C 89.386719 27.382812 88.976562 27.375 88.554688 27.375 C 88.253906 27.375 87.953125 27.382812 87.644531 27.402344 C 87.339844 27.421875 87.027344 27.449219 86.699219 27.488281 C 86.6875 27.410156 86.679688 27.339844 86.679688 27.269531 C 86.679688 27.203125 86.679688 27.144531 86.679688 27.085938 C 86.679688 26.875 86.699219 26.671875 86.742188 26.480469 L 87.738281 26.394531 L 84.824219 20.515625 L 83.886719 20.515625 L 83.886719 25.902344 L 85.253906 26.480469 C 85.253906 26.539062 85.253906 26.589844 85.261719 26.636719 C 85.269531 26.6875 85.273438 26.738281 85.273438 26.796875 C 85.273438 27.027344 85.230469 27.257812 85.148438 27.488281 C 84.785156 27.449219 84.40625 27.417969 84.015625 27.390625 C 83.632812 27.359375 83.246094 27.34375 82.867188 27.34375 C 82.488281 27.34375 82.074219 27.359375 81.625 27.390625 C 81.175781 27.417969 80.761719 27.449219 80.378906 27.488281 C 80.367188 27.410156 80.359375 27.339844 80.359375 27.269531 C 80.359375 27.203125 80.359375 27.144531 80.359375 27.085938 C 80.359375 26.875 80.378906 26.671875 80.421875 26.480469 C 80.679688 26.382812 80.933594 26.296875 81.183594 26.222656 C 81.4375 26.144531 81.65625 26.039062 81.847656 25.902344 L 81.847656 7.582031 L 80.15625 7.351562 C 80.144531 7.292969 80.136719 7.234375 80.136719 7.175781 C 80.136719 7.121094 80.136719 7.070312 80.136719 7.03125 C 80.136719 6.800781 80.175781 6.570312 80.257812 6.339844 C 80.746094 6.246094 81.238281 6.128906 81.734375 5.996094 C 82.230469 5.859375 82.691406 5.71875 83.113281 5.5625 C 83.246094 5.582031 83.378906 5.617188 83.5 5.660156 C 83.621094 5.710938 83.75 5.785156 83.886719 5.878906 Z M 94.039062 19.566406 L 94.039062 20.140625 C 94.039062 22.082031 94.3125 23.585938 94.859375 24.652344 C 95.414062 25.71875 96.164062 26.25 97.117188 26.25 C 97.535156 26.25 97.890625 26.214844 98.175781 26.144531 C 98.460938 26.082031 98.742188 25.953125 99.019531 25.761719 C 99.300781 25.566406 99.617188 25.296875 99.96875 24.953125 C 100.1875 25.085938 100.308594 25.316406 100.335938 25.644531 C 99.914062 26.335938 99.410156 26.875 98.828125 27.257812 C 98.242188 27.640625 97.652344 27.835938 97.054688 27.835938 C 96.019531 27.835938 95.117188 27.527344 94.34375 26.914062 C 93.570312 26.296875 92.964844 25.414062 92.527344 24.261719 C 92.09375 23.109375 91.875 21.734375 91.875 20.140625 C 91.875 18.507812 92.105469 17.121094 92.558594 15.976562 C 93.015625 14.835938 93.625 13.960938 94.390625 13.355469 C 95.160156 12.75 96.015625 12.449219 96.953125 12.449219 C 98.160156 12.449219 99.054688 13.019531 99.628906 14.160156 C 100.210938 15.304688 100.5 16.78125 100.5 18.585938 C 100.5 18.71875 100.5 18.84375 100.5 18.960938 C 100.5 19.074219 100.492188 19.199219 100.480469 19.335938 L 100.191406 19.652344 Z M 96.933594 13.6875 C 96.539062 13.6875 96.144531 13.859375 95.757812 14.207031 C 95.371094 14.550781 95.03125 15.070312 94.730469 15.761719 C 94.429688 16.453125 94.226562 17.328125 94.117188 18.382812 L 98.5625 18.039062 C 98.5625 16.558594 98.449219 15.464844 98.222656 14.753906 C 98 14.042969 97.570312 13.6875 96.933594 13.6875 Z M 103.226562 23.023438 L 103.429688 26.078125 C 103.714844 26.269531 104.003906 26.402344 104.296875 26.480469 C 104.589844 26.558594 104.917969 26.59375 105.285156 26.59375 C 105.84375 26.59375 106.339844 26.421875 106.773438 26.078125 C 107.207031 25.730469 107.425781 25.175781 107.425781 24.40625 C 107.425781 24.003906 107.347656 23.628906 107.191406 23.28125 C 107.035156 22.9375 106.761719 22.582031 106.378906 22.214844 C 105.988281 21.851562 105.433594 21.4375 104.714844 20.976562 C 103.925781 20.457031 103.316406 19.855469 102.878906 19.171875 C 102.445312 18.492188 102.226562 17.546875 102.226562 16.339844 C 102.226562 15.359375 102.402344 14.585938 102.75 14.015625 C 103.09375 13.453125 103.542969 13.042969 104.09375 12.792969 C 104.644531 12.546875 105.222656 12.421875 105.835938 12.421875 C 106.363281 12.421875 106.890625 12.492188 107.417969 12.632812 C 107.9375 12.78125 108.402344 12.976562 108.8125 13.226562 C 108.8125 13.324219 108.816406 13.429688 108.824219 13.542969 C 108.828125 13.660156 108.832031 13.765625 108.832031 13.859375 C 108.832031 15.03125 108.703125 16.136719 108.445312 17.175781 C 108.390625 17.191406 108.339844 17.207031 108.292969 17.21875 C 108.246094 17.226562 108.191406 17.230469 108.136719 17.230469 C 107.933594 17.230469 107.730469 17.175781 107.527344 17.058594 L 107.199219 13.949219 C 107.023438 13.871094 106.820312 13.808594 106.589844 13.757812 C 106.359375 13.710938 106.128906 13.6875 105.894531 13.6875 C 105.582031 13.6875 105.273438 13.75 104.972656 13.871094 C 104.664062 14 104.414062 14.210938 104.21875 14.507812 C 104.019531 14.804688 103.917969 15.226562 103.917969 15.761719 C 103.917969 16.128906 103.976562 16.472656 104.09375 16.800781 C 104.207031 17.125 104.441406 17.464844 104.789062 17.820312 C 105.132812 18.175781 105.652344 18.59375 106.34375 19.074219 C 107.433594 19.804688 108.195312 20.511719 108.640625 21.191406 C 109.082031 21.875 109.300781 22.726562 109.300781 23.742188 C 109.300781 24.722656 109.117188 25.519531 108.75 26.132812 C 108.382812 26.75 107.90625 27.199219 107.316406 27.488281 C 106.722656 27.777344 106.09375 27.921875 105.425781 27.921875 C 104.789062 27.921875 104.195312 27.847656 103.644531 27.707031 C 103.09375 27.5625 102.539062 27.25 101.984375 26.769531 L 101.984375 26.277344 C 101.984375 25.761719 102.007812 25.226562 102.054688 24.675781 C 102.101562 24.132812 102.199219 23.542969 102.351562 22.90625 C 102.429688 22.886719 102.5 22.878906 102.554688 22.878906 C 102.796875 22.878906 103.023438 22.925781 103.226562 23.023438 Z M 113.765625 5.878906 L 113.765625 14.523438 L 113.867188 14.523438 C 114.476562 13.734375 115.074219 13.179688 115.652344 12.851562 C 116.226562 12.527344 116.746094 12.363281 117.210938 12.363281 C 118.324219 12.363281 119.136719 12.777344 119.648438 13.601562 C 120.15625 14.425781 120.410156 15.511719 120.410156 16.855469 L 120.410156 25.902344 L 121.875 26.480469 C 121.917969 26.84375 121.882812 27.179688 121.773438 27.488281 C 121.40625 27.449219 121.015625 27.417969 120.59375 27.390625 C 120.171875 27.359375 119.769531 27.34375 119.390625 27.34375 C 119.007812 27.34375 118.59375 27.359375 118.148438 27.390625 C 117.699219 27.417969 117.285156 27.449219 116.902344 27.488281 C 116.863281 27.125 116.875 26.789062 116.945312 26.480469 C 117.1875 26.402344 117.433594 26.320312 117.679688 26.230469 C 117.921875 26.148438 118.152344 26.039062 118.371094 25.902344 L 118.371094 17.289062 C 118.371094 16.484375 118.28125 15.867188 118.105469 15.445312 C 117.929688 15.023438 117.691406 14.738281 117.390625 14.59375 C 117.09375 14.449219 116.761719 14.378906 116.394531 14.378906 C 115.957031 14.378906 115.507812 14.53125 115.039062 14.839844 C 114.570312 15.148438 114.179688 15.550781 113.867188 16.050781 L 113.867188 25.902344 L 115.230469 26.480469 C 115.273438 26.84375 115.238281 27.179688 115.128906 27.488281 C 114.761719 27.449219 114.386719 27.417969 114 27.390625 C 113.613281 27.359375 113.226562 27.34375 112.847656 27.34375 C 112.464844 27.34375 112.050781 27.359375 111.605469 27.390625 C 111.15625 27.417969 110.742188 27.449219 110.359375 27.488281 C 110.320312 27.125 110.332031 26.789062 110.402344 26.480469 C 110.660156 26.382812 110.914062 26.296875 111.167969 26.222656 C 111.417969 26.144531 111.636719 26.039062 111.828125 25.902344 L 111.828125 7.582031 L 110.136719 7.351562 C 110.09375 6.964844 110.128906 6.628906 110.238281 6.339844 C 111.214844 6.128906 112.132812 5.871094 112.988281 5.5625 C 113.125 5.582031 113.253906 5.617188 113.378906 5.660156 C 113.5 5.710938 113.628906 5.785156 113.765625 5.878906 Z M 113.765625 5.878906 "/>
</g>
<g clip-path="url(#clip2)" clip-rule="nonzero">
<path style=" stroke:none;fill-rule:nonzero;fill:rgb(1.176471%,1.176471%,1.176471%);fill-opacity:1;" d="M 131.984375 27.890625 C 131.207031 27.890625 130.445312 27.816406 129.6875 27.660156 C 128.933594 27.507812 128.28125 27.25 127.722656 26.882812 C 127.722656 26.058594 127.765625 25.226562 127.855469 24.386719 C 127.941406 23.554688 128.078125 22.714844 128.253906 21.871094 C 128.292969 21.871094 128.335938 21.863281 128.375 21.851562 C 128.417969 21.84375 128.464844 21.839844 128.519531 21.839844 C 128.761719 21.839844 128.972656 21.898438 129.148438 22.015625 L 129.476562 25.847656 C 129.734375 25.921875 130.050781 26.011719 130.421875 26.117188 C 130.796875 26.222656 131.214844 26.277344 131.675781 26.277344 C 132.167969 26.277344 132.667969 26.191406 133.1875 26.019531 C 133.703125 25.847656 134.136719 25.53125 134.492188 25.078125 C 134.84375 24.628906 135.019531 23.984375 135.019531 23.136719 C 135.019531 22.636719 134.980469 22.1875 134.90625 21.785156 C 134.832031 21.378906 134.667969 20.988281 134.410156 20.601562 C 134.152344 20.21875 133.757812 19.808594 133.226562 19.375 C 132.695312 18.945312 131.976562 18.453125 131.066406 17.894531 C 130.085938 17.28125 129.363281 16.664062 128.894531 16.050781 C 128.425781 15.4375 128.125 14.785156 127.988281 14.101562 C 127.851562 13.421875 127.785156 12.6875 127.785156 11.902344 C 127.785156 10.691406 128.03125 9.707031 128.527344 8.945312 C 129.023438 8.1875 129.671875 7.628906 130.476562 7.261719 C 131.277344 6.898438 132.125 6.714844 133.023438 6.714844 C 133.621094 6.714844 134.21875 6.785156 134.816406 6.929688 C 135.414062 7.074219 135.972656 7.292969 136.488281 7.582031 C 136.515625 8.464844 136.464844 9.304688 136.332031 10.097656 C 136.207031 10.898438 136.046875 11.679688 135.855469 12.449219 C 135.816406 12.46875 135.769531 12.476562 135.722656 12.476562 C 135.675781 12.476562 135.632812 12.476562 135.589844 12.476562 C 135.359375 12.476562 135.148438 12.421875 134.960938 12.304688 L 134.734375 8.472656 C 134.449219 8.359375 134.152344 8.265625 133.839844 8.195312 C 133.527344 8.132812 133.214844 8.097656 132.902344 8.097656 C 132.371094 8.097656 131.859375 8.207031 131.371094 8.425781 C 130.882812 8.648438 130.484375 9 130.175781 9.480469 C 129.871094 9.960938 129.71875 10.605469 129.71875 11.410156 C 129.71875 11.949219 129.789062 12.433594 129.925781 12.863281 C 130.058594 13.296875 130.335938 13.71875 130.746094 14.132812 C 131.164062 14.546875 131.792969 15.023438 132.636719 15.5625 C 133.695312 16.214844 134.558594 16.828125 135.222656 17.40625 C 135.890625 17.980469 136.378906 18.644531 136.691406 19.394531 C 137.003906 20.140625 137.160156 21.121094 137.160156 22.332031 C 137.160156 23.273438 137.011719 24.09375 136.710938 24.796875 C 136.414062 25.496094 136.011719 26.070312 135.507812 26.519531 C 135.007812 26.972656 134.449219 27.316406 133.839844 27.546875 C 133.226562 27.777344 132.609375 27.890625 131.984375 27.890625 Z M 141.339844 27.835938 C 140.523438 27.835938 139.835938 27.53125 139.28125 26.921875 C 138.722656 26.320312 138.445312 25.40625 138.445312 24.175781 C 138.445312 23.214844 138.609375 22.425781 138.941406 21.8125 C 139.277344 21.199219 139.726562 20.722656 140.289062 20.382812 C 140.851562 20.050781 141.480469 19.824219 142.175781 19.710938 C 142.867188 19.59375 143.574219 19.546875 144.292969 19.566406 L 144.316406 17.03125 C 144.328125 15.953125 144.1875 15.121094 143.886719 14.535156 C 143.589844 13.953125 143.132812 13.660156 142.519531 13.660156 C 142.179688 13.660156 141.855469 13.691406 141.542969 13.757812 C 141.230469 13.828125 140.917969 13.9375 140.605469 14.089844 L 140.339844 17.144531 C 140.230469 17.222656 140.082031 17.265625 139.890625 17.273438 C 139.703125 17.285156 139.550781 17.28125 139.445312 17.261719 C 139.320312 16.625 139.21875 15.992188 139.136719 15.359375 C 139.054688 14.726562 139.023438 14.109375 139.035156 13.515625 C 139.675781 13.09375 140.316406 12.792969 140.960938 12.621094 C 141.605469 12.449219 142.3125 12.363281 143.070312 12.363281 C 143.832031 12.363281 144.445312 12.535156 144.914062 12.882812 C 145.382812 13.226562 145.730469 13.824219 145.953125 14.667969 C 146.179688 15.511719 146.292969 16.695312 146.292969 18.210938 L 146.292969 25.933594 C 146.523438 26.085938 146.761719 26.195312 147.003906 26.261719 C 147.25 26.332031 147.488281 26.414062 147.71875 26.507812 C 147.757812 26.875 147.726562 27.210938 147.617188 27.515625 C 147.398438 27.574219 147.136719 27.621094 146.832031 27.660156 C 146.527344 27.699219 146.21875 27.71875 145.90625 27.71875 C 145.457031 27.71875 145.070312 27.660156 144.742188 27.546875 L 144.457031 26.046875 L 144.375 26.046875 C 144.035156 26.546875 143.613281 26.96875 143.113281 27.316406 C 142.609375 27.660156 142.019531 27.835938 141.339844 27.835938 Z M 142.113281 26.25 C 142.492188 26.25 142.902344 26.082031 143.335938 25.742188 C 143.769531 25.410156 144.089844 25.03125 144.292969 24.605469 L 144.292969 20.71875 C 142.894531 20.71875 141.910156 20.953125 141.339844 21.421875 C 140.769531 21.894531 140.484375 22.714844 140.484375 23.886719 C 140.484375 24.675781 140.632812 25.265625 140.929688 25.65625 C 141.230469 26.050781 141.625 26.25 142.113281 26.25 Z M 151.710938 12.882812 L 151.691406 14.035156 L 151.792969 14.179688 C 152.335938 13.503906 152.863281 13.035156 153.382812 12.765625 C 153.898438 12.496094 154.386719 12.363281 154.847656 12.363281 C 155.773438 12.363281 156.546875 12.710938 157.171875 13.410156 C 157.796875 14.113281 158.273438 15.03125 158.597656 16.164062 C 158.925781 17.300781 159.089844 18.5 159.089844 19.765625 C 159.089844 22.4375 158.625 24.457031 157.695312 25.828125 C 156.761719 27.203125 155.488281 27.890625 153.871094 27.890625 C 153.613281 27.890625 153.285156 27.835938 152.882812 27.71875 C 152.480469 27.605469 152.117188 27.449219 151.792969 27.257812 L 151.792969 33.105469 L 153.566406 33.683594 C 153.605469 34.046875 153.570312 34.382812 153.464844 34.691406 C 153.097656 34.652344 152.652344 34.621094 152.128906 34.59375 C 151.605469 34.5625 151.152344 34.546875 150.773438 34.546875 C 150.390625 34.546875 149.976562 34.5625 149.527344 34.59375 C 149.082031 34.621094 148.667969 34.652344 148.285156 34.691406 C 148.246094 34.328125 148.257812 33.988281 148.328125 33.683594 C 148.558594 33.605469 148.796875 33.523438 149.039062 33.441406 C 149.285156 33.351562 149.523438 33.242188 149.753906 33.105469 L 149.753906 14.667969 L 148.082031 14.4375 C 148.039062 14.054688 148.074219 13.71875 148.183594 13.429688 C 148.292969 13.410156 148.597656 13.335938 149.101562 13.210938 C 149.605469 13.085938 150.234375 12.902344 150.996094 12.652344 C 151.144531 12.671875 151.273438 12.699219 151.382812 12.738281 C 151.492188 12.777344 151.601562 12.824219 151.710938 12.882812 Z M 151.792969 15.703125 L 151.792969 25.644531 C 152.050781 25.894531 152.339844 26.109375 152.660156 26.289062 C 152.976562 26.472656 153.367188 26.566406 153.828125 26.566406 C 154.847656 26.566406 155.621094 25.984375 156.144531 24.820312 C 156.667969 23.660156 156.929688 22.035156 156.929688 19.941406 C 156.929688 17.960938 156.6875 16.492188 156.207031 15.53125 C 155.722656 14.570312 155.066406 14.089844 154.238281 14.089844 C 153.734375 14.089844 153.25 14.269531 152.78125 14.621094 C 152.3125 14.980469 151.980469 15.339844 151.792969 15.703125 Z M 163.714844 5.878906 L 163.714844 19.363281 L 164.246094 19.363281 L 167.507812 14.234375 L 166.019531 13.804688 C 166.003906 13.726562 166 13.621094 166 13.488281 C 166 13.257812 166.039062 13.027344 166.121094 12.792969 C 166.488281 12.8125 166.832031 12.84375 167.152344 12.882812 C 167.46875 12.917969 167.820312 12.9375 168.199219 12.9375 C 168.59375 12.9375 168.917969 12.917969 169.171875 12.882812 C 169.421875 12.84375 169.734375 12.8125 170.117188 12.792969 C 170.128906 12.871094 170.136719 12.941406 170.136719 13.007812 C 170.136719 13.078125 170.136719 13.148438 170.136719 13.226562 C 170.136719 13.398438 170.117188 13.59375 170.074219 13.804688 C 169.859375 13.824219 169.597656 13.894531 169.300781 14.015625 C 169 14.144531 168.75 14.3125 168.546875 14.523438 L 165.773438 18.730469 L 169.546875 25.902344 C 169.667969 26.058594 169.863281 26.183594 170.128906 26.277344 C 170.390625 26.375 170.652344 26.441406 170.910156 26.480469 C 170.910156 26.539062 170.914062 26.589844 170.921875 26.636719 C 170.929688 26.6875 170.929688 26.738281 170.929688 26.796875 C 170.929688 27.027344 170.890625 27.257812 170.808594 27.488281 C 170.414062 27.449219 170.019531 27.421875 169.617188 27.402344 C 169.214844 27.382812 168.804688 27.375 168.382812 27.375 C 168.085938 27.375 167.78125 27.382812 167.476562 27.402344 C 167.171875 27.421875 166.855469 27.449219 166.527344 27.488281 C 166.515625 27.410156 166.507812 27.339844 166.507812 27.269531 C 166.507812 27.203125 166.507812 27.144531 166.507812 27.085938 C 166.507812 26.875 166.527344 26.671875 166.570312 26.480469 L 167.566406 26.394531 L 164.652344 20.515625 L 163.714844 20.515625 L 163.714844 25.902344 L 165.082031 26.480469 C 165.082031 26.539062 165.085938 26.589844 165.09375 26.636719 C 165.097656 26.6875 165.101562 26.738281 165.101562 26.796875 C 165.101562 27.027344 165.0625 27.257812 164.980469 27.488281 C 164.613281 27.449219 164.234375 27.417969 163.851562 27.390625 C 163.460938 27.359375 163.078125 27.34375 162.695312 27.34375 C 162.316406 27.34375 161.902344 27.359375 161.453125 27.390625 C 161.003906 27.417969 160.589844 27.449219 160.210938 27.488281 C 160.195312 27.410156 160.1875 27.339844 160.1875 27.269531 C 160.1875 27.203125 160.1875 27.144531 160.1875 27.085938 C 160.1875 26.875 160.210938 26.671875 160.25 26.480469 C 160.507812 26.382812 160.765625 26.296875 161.015625 26.222656 C 161.265625 26.144531 161.488281 26.039062 161.675781 25.902344 L 161.675781 7.582031 L 159.984375 7.351562 C 159.972656 7.292969 159.964844 7.234375 159.964844 7.175781 C 159.964844 7.121094 159.964844 7.070312 159.964844 7.03125 C 159.964844 6.800781 160.007812 6.570312 160.085938 6.339844 C 160.578125 6.246094 161.070312 6.128906 161.566406 5.996094 C 162.0625 5.859375 162.519531 5.71875 162.941406 5.5625 C 163.078125 5.582031 163.207031 5.617188 163.328125 5.660156 C 163.449219 5.710938 163.578125 5.785156 163.714844 5.878906 Z M 174.457031 27.835938 C 173.640625 27.835938 172.957031 27.53125 172.398438 26.921875 C 171.839844 26.320312 171.5625 25.40625 171.5625 24.175781 C 171.5625 23.214844 171.730469 22.425781 172.058594 21.8125 C 172.394531 21.199219 172.84375 20.722656 173.40625 20.382812 C 173.972656 20.050781 174.601562 19.824219 175.292969 19.710938 C 175.984375 19.59375 176.691406 19.546875 177.414062 19.566406 L 177.433594 17.03125 C 177.445312 15.953125 177.304688 15.121094 177.003906 14.535156 C 176.707031 13.953125 176.25 13.660156 175.640625 13.660156 C 175.300781 13.660156 174.972656 13.691406 174.660156 13.757812 C 174.347656 13.828125 174.035156 13.9375 173.722656 14.089844 L 173.457031 17.144531 C 173.351562 17.222656 173.199219 17.265625 173.011719 17.273438 C 172.820312 17.285156 172.671875 17.28125 172.5625 17.261719 C 172.441406 16.625 172.335938 15.992188 172.257812 15.359375 C 172.175781 14.726562 172.140625 14.109375 172.152344 13.515625 C 172.792969 13.09375 173.433594 12.792969 174.078125 12.621094 C 174.726562 12.449219 175.429688 12.363281 176.191406 12.363281 C 176.949219 12.363281 177.566406 12.535156 178.03125 12.882812 C 178.503906 13.226562 178.847656 13.824219 179.074219 14.667969 C 179.296875 15.511719 179.410156 16.695312 179.410156 18.210938 L 179.410156 25.933594 C 179.640625 26.085938 179.878906 26.195312 180.125 26.261719 C 180.367188 26.332031 180.605469 26.414062 180.835938 26.507812 C 180.878906 26.875 180.84375 27.210938 180.734375 27.515625 C 180.519531 27.574219 180.257812 27.621094 179.949219 27.660156 C 179.644531 27.699219 179.335938 27.71875 179.023438 27.71875 C 178.574219 27.71875 178.1875 27.660156 177.863281 27.546875 L 177.578125 26.046875 L 177.496094 26.046875 C 177.15625 26.546875 176.734375 26.96875 176.230469 27.316406 C 175.726562 27.660156 175.136719 27.835938 174.457031 27.835938 Z M 175.230469 26.25 C 175.613281 26.25 176.019531 26.082031 176.457031 25.742188 C 176.890625 25.410156 177.210938 25.03125 177.414062 24.605469 L 177.414062 20.71875 C 176.011719 20.71875 175.027344 20.953125 174.457031 21.421875 C 173.886719 21.894531 173.601562 22.714844 173.601562 23.886719 C 173.601562 24.675781 173.75 25.265625 174.050781 25.65625 C 174.347656 26.050781 174.742188 26.25 175.230469 26.25 Z M 184.914062 5.878906 L 184.914062 25.902344 L 186.484375 26.480469 C 186.523438 26.84375 186.492188 27.179688 186.382812 27.488281 C 186.015625 27.449219 185.601562 27.417969 185.148438 27.390625 C 184.691406 27.359375 184.277344 27.34375 183.894531 27.34375 C 183.515625 27.34375 183.101562 27.359375 182.652344 27.390625 C 182.203125 27.417969 181.789062 27.449219 181.410156 27.488281 C 181.367188 27.125 181.382812 26.789062 181.449219 26.480469 C 181.707031 26.382812 181.960938 26.296875 182.210938 26.222656 C 182.464844 26.144531 182.6875 26.039062 182.875 25.902344 L 182.875 7.582031 L 181.183594 7.351562 C 181.144531 6.964844 181.175781 6.628906 181.285156 6.339844 C 181.773438 6.246094 182.265625 6.128906 182.761719 5.996094 C 183.257812 5.859375 183.71875 5.71875 184.140625 5.5625 C 184.277344 5.582031 184.40625 5.617188 184.527344 5.660156 C 184.648438 5.710938 184.777344 5.785156 184.914062 5.878906 Z M 184.914062 5.878906 "/>
</g>
<path style=" stroke:none;fill-rule:nonzero;fill:rgb(1.176471%,1.176471%,1.176471%);fill-opacity:1;" d="M 11.507812 30.664062 C 11.386719 30.578125 11.316406 30.453125 11.300781 30.316406 C 11.152344 30.476562 11.125 30.6875 11.355469 30.855469 C 11.359375 30.859375 11.363281 30.863281 11.367188 30.863281 C 11.644531 31.0625 12.039062 31.125 12.324219 30.875 C 12.328125 30.867188 12.335938 30.863281 12.34375 30.855469 C 12.546875 30.664062 12.566406 30.511719 12.445312 30.359375 C 12.425781 30.457031 12.375 30.550781 12.289062 30.625 C 12.078125 30.8125 11.734375 30.824219 11.507812 30.664062 Z M 11.507812 30.664062 "/>
<path style=" stroke:none;fill-rule:nonzero;fill:rgb(1.176471%,1.176471%,1.176471%);fill-opacity:1;" d="M 13.828125 28.636719 C 13.707031 28.550781 13.636719 28.425781 13.621094 28.289062 C 13.46875 28.453125 13.445312 28.667969 13.6875 28.839844 C 13.761719 28.890625 13.84375 28.933594 13.929688 28.964844 C 14.101562 29.023438 14.289062 29.03125 14.460938 28.964844 C 14.523438 28.9375 14.585938 28.898438 14.644531 28.847656 C 14.867188 28.648438 14.890625 28.488281 14.765625 28.332031 C 14.746094 28.429688 14.695312 28.523438 14.609375 28.597656 C 14.398438 28.785156 14.054688 28.800781 13.828125 28.636719 Z M 13.828125 28.636719 "/>
<path style=" stroke:none;fill-rule:nonzero;fill:rgb(1.176471%,1.176471%,1.176471%);fill-opacity:1;" d="M 6.773438 28.964844 C 6.578125 29.074219 6.320312 29.078125 6.125 28.964844 C 6.109375 28.957031 6.097656 28.945312 6.082031 28.9375 C 5.960938 28.851562 5.890625 28.722656 5.875 28.589844 C 5.773438 28.699219 5.726562 28.835938 5.789062 28.964844 C 5.816406 29.023438 5.863281 29.082031 5.941406 29.136719 C 6.21875 29.335938 6.617188 29.398438 6.898438 29.148438 C 6.96875 29.082031 7.023438 29.019531 7.054688 28.964844 C 7.121094 28.84375 7.105469 28.738281 7.019531 28.632812 C 7 28.730469 6.949219 28.824219 6.863281 28.898438 C 6.835938 28.921875 6.804688 28.945312 6.773438 28.964844 Z M 6.773438 28.964844 "/>
<path style=" stroke:none;fill-rule:nonzero;fill:rgb(1.176471%,1.176471%,1.176471%);fill-opacity:1;" d="M 3.761719 30.964844 C 3.71875 30.933594 3.683594 30.898438 3.652344 30.859375 C 3.597656 30.785156 3.5625 30.703125 3.554688 30.617188 C 3.484375 30.6875 3.445312 30.773438 3.441406 30.859375 C 3.433594 30.960938 3.488281 31.070312 3.621094 31.164062 C 3.898438 31.363281 4.296875 31.421875 4.578125 31.171875 C 4.707031 31.058594 4.769531 30.957031 4.773438 30.859375 C 4.777344 30.789062 4.75 30.722656 4.699219 30.660156 C 4.683594 30.726562 4.65625 30.796875 4.605469 30.855469 C 4.589844 30.882812 4.566406 30.902344 4.542969 30.925781 C 4.332031 31.109375 3.988281 31.125 3.761719 30.964844 Z M 3.761719 30.964844 "/>
<path style=" stroke:none;fill-rule:nonzero;fill:rgb(1.176471%,1.176471%,1.176471%);fill-opacity:1;" d="M 7.296875 32.554688 C 7.621094 32.265625 6.976562 31.9375 6.648438 32.230469 C 6.324219 32.515625 6.96875 32.847656 7.296875 32.554688 Z M 7.296875 32.554688 "/>
<path style=" stroke:none;fill-rule:nonzero;fill:rgb(1.176471%,1.176471%,1.176471%);fill-opacity:1;" d="M 8.457031 31.539062 C 8.78125 31.253906 8.136719 30.921875 7.808594 31.214844 C 7.484375 31.503906 8.128906 31.835938 8.457031 31.539062 Z M 8.457031 31.539062 "/>
<path style=" stroke:none;fill-rule:nonzero;fill:rgb(1.176471%,1.176471%,1.176471%);fill-opacity:1;" d="M 11.039062 31.441406 C 11.363281 31.152344 10.71875 30.824219 10.390625 31.117188 C 10.066406 31.402344 10.710938 31.734375 11.039062 31.441406 Z M 11.039062 31.441406 "/>
<path style=" stroke:none;fill-rule:nonzero;fill:rgb(1.176471%,1.176471%,1.176471%);fill-opacity:1;" d="M 10.347656 31.675781 C 10.226562 31.59375 10.15625 31.464844 10.140625 31.332031 C 9.988281 31.492188 9.964844 31.707031 10.207031 31.878906 C 10.484375 32.078125 10.878906 32.136719 11.160156 31.886719 C 11.386719 31.6875 11.410156 31.527344 11.285156 31.375 C 11.265625 31.46875 11.214844 31.5625 11.128906 31.640625 C 10.917969 31.824219 10.574219 31.839844 10.347656 31.675781 Z M 10.347656 31.675781 "/>
<path style=" stroke:none;fill-rule:nonzero;fill:rgb(1.176471%,1.176471%,1.176471%);fill-opacity:1;" d="M 5.183594 31.878906 C 5.0625 31.792969 4.992188 31.664062 4.976562 31.53125 C 4.824219 31.691406 4.800781 31.90625 5.042969 32.078125 C 5.320312 32.277344 5.71875 32.335938 6 32.085938 C 6.222656 31.886719 6.246094 31.726562 6.121094 31.574219 C 6.101562 31.667969 6.050781 31.761719 5.964844 31.839844 C 5.753906 32.023438 5.410156 32.039062 5.183594 31.878906 Z M 5.183594 31.878906 "/>
<path style=" stroke:none;fill-rule:nonzero;fill:rgb(1.176471%,1.176471%,1.176471%);fill-opacity:1;" d="M 8.027344 33.703125 C 7.90625 33.617188 7.832031 33.492188 7.820312 33.359375 C 7.667969 33.519531 7.644531 33.734375 7.882812 33.90625 C 8.164062 34.105469 8.558594 34.164062 8.839844 33.914062 C 9.066406 33.714844 9.089844 33.554688 8.964844 33.398438 C 8.945312 33.496094 8.894531 33.589844 8.808594 33.664062 C 8.597656 33.851562 8.253906 33.867188 8.027344 33.703125 Z M 8.027344 33.703125 "/>
<path style=" stroke:none;fill-rule:nonzero;fill:rgb(1.176471%,1.176471%,1.176471%);fill-opacity:1;" d="M 9.1875 32.691406 C 9.066406 32.605469 8.992188 32.476562 8.980469 32.34375 C 8.828125 32.503906 8.804688 32.71875 9.042969 32.890625 C 9.324219 33.089844 9.71875 33.152344 10 32.902344 C 10.226562 32.703125 10.25 32.542969 10.125 32.386719 C 10.105469 32.484375 10.054688 32.578125 9.96875 32.652344 C 9.757812 32.839844 9.414062 32.851562 9.1875 32.691406 Z M 9.1875 32.691406 "/>
<path style=" stroke:none;fill-rule:nonzero;fill:rgb(1.176471%,1.176471%,1.176471%);fill-opacity:1;" d="M 8.71875 33.46875 C 9.042969 33.179688 8.398438 32.847656 8.070312 33.144531 C 7.746094 33.429688 8.390625 33.761719 8.71875 33.46875 Z M 8.71875 33.46875 "/>
<path style=" stroke:none;fill-rule:nonzero;fill:rgb(1.176471%,1.176471%,1.176471%);fill-opacity:1;" d="M 6.605469 32.789062 C 6.484375 32.707031 6.414062 32.578125 6.398438 32.445312 C 6.246094 32.605469 6.222656 32.820312 6.464844 32.992188 C 6.742188 33.191406 7.136719 33.25 7.417969 33 C 7.644531 32.800781 7.667969 32.640625 7.542969 32.484375 C 7.523438 32.582031 7.472656 32.675781 7.386719 32.753906 C 7.175781 32.9375 6.832031 32.953125 6.605469 32.789062 Z M 6.605469 32.789062 "/>
<path style=" stroke:none;fill-rule:nonzero;fill:rgb(1.176471%,1.176471%,1.176471%);fill-opacity:1;" d="M 9.878906 32.453125 C 10.203125 32.167969 9.558594 31.835938 9.230469 32.128906 C 8.90625 32.417969 9.550781 32.75 9.878906 32.453125 Z M 9.878906 32.453125 "/>
<path style=" stroke:none;fill-rule:nonzero;fill:rgb(1.176471%,1.176471%,1.176471%);fill-opacity:1;" d="M 7.765625 31.777344 C 7.644531 31.691406 7.574219 31.5625 7.558594 31.429688 C 7.40625 31.589844 7.382812 31.808594 7.625 31.976562 C 7.902344 32.175781 8.296875 32.238281 8.582031 31.988281 C 8.804688 31.789062 8.828125 31.628906 8.703125 31.472656 C 8.683594 31.570312 8.632812 31.664062 8.546875 31.738281 C 8.335938 31.925781 7.992188 31.9375 7.765625 31.777344 Z M 7.765625 31.777344 "/>
<path style=" stroke:none;fill-rule:nonzero;fill:rgb(1.176471%,1.176471%,1.176471%);fill-opacity:1;" d="M 5.875 31.640625 C 6.199219 31.351562 5.554688 31.023438 5.226562 31.316406 C 4.902344 31.601562 5.546875 31.933594 5.875 31.640625 Z M 5.875 31.640625 "/>
<path style=" stroke:none;fill-rule:nonzero;fill:rgb(1.176471%,1.176471%,1.176471%);fill-opacity:1;" d="M 5.613281 29.714844 C 5.9375 29.425781 5.296875 29.09375 4.964844 29.386719 C 4.640625 29.675781 5.285156 30.007812 5.613281 29.714844 Z M 5.613281 29.714844 "/>
<path style=" stroke:none;fill-rule:nonzero;fill:rgb(1.176471%,1.176471%,1.176471%);fill-opacity:1;" d="M 13.359375 29.414062 C 13.683594 29.128906 13.039062 28.796875 12.710938 29.089844 C 12.386719 29.375 13.03125 29.707031 13.359375 29.414062 Z M 13.359375 29.414062 "/>
<path style=" stroke:none;fill-rule:nonzero;fill:rgb(1.176471%,1.176471%,1.176471%);fill-opacity:1;" d="M 12.667969 29.652344 C 12.546875 29.566406 12.476562 29.4375 12.460938 29.304688 C 12.308594 29.464844 12.285156 29.679688 12.527344 29.851562 C 12.804688 30.050781 13.203125 30.113281 13.484375 29.859375 C 13.707031 29.660156 13.730469 29.5 13.605469 29.347656 C 13.585938 29.445312 13.535156 29.535156 13.449219 29.613281 C 13.238281 29.796875 12.894531 29.8125 12.667969 29.652344 Z M 12.667969 29.652344 "/>
<path style=" stroke:none;fill-rule:nonzero;fill:rgb(1.176471%,1.176471%,1.176471%);fill-opacity:1;" d="M 7.503906 29.851562 C 7.382812 29.765625 7.3125 29.636719 7.296875 29.503906 C 7.144531 29.664062 7.121094 29.878906 7.363281 30.050781 C 7.640625 30.25 8.039062 30.3125 8.320312 30.058594 C 8.542969 29.859375 8.566406 29.699219 8.441406 29.546875 C 8.421875 29.640625 8.371094 29.734375 8.285156 29.8125 C 8.078125 29.996094 7.730469 30.011719 7.503906 29.851562 Z M 7.503906 29.851562 "/>
<path style=" stroke:none;fill-rule:nonzero;fill:rgb(1.176471%,1.176471%,1.176471%);fill-opacity:1;" d="M 7.035156 30.628906 C 7.359375 30.339844 6.714844 30.007812 6.386719 30.300781 C 6.0625 30.589844 6.707031 30.921875 7.035156 30.628906 Z M 7.035156 30.628906 "/>
<path style=" stroke:none;fill-rule:nonzero;fill:rgb(1.176471%,1.176471%,1.176471%);fill-opacity:1;" d="M 10.777344 29.515625 C 11.101562 29.226562 10.457031 28.894531 10.128906 29.1875 C 9.804688 29.476562 10.449219 29.808594 10.777344 29.515625 Z M 10.777344 29.515625 "/>
<path style=" stroke:none;fill-rule:nonzero;fill:rgb(1.176471%,1.176471%,1.176471%);fill-opacity:1;" d="M 9.617188 30.527344 C 9.941406 30.238281 9.296875 29.910156 8.96875 30.203125 C 8.644531 30.488281 9.289062 30.820312 9.617188 30.527344 Z M 9.617188 30.527344 "/>
<path style=" stroke:none;fill-rule:nonzero;fill:rgb(1.176471%,1.176471%,1.176471%);fill-opacity:1;" d="M 10.085938 29.75 C 9.964844 29.664062 9.894531 29.539062 9.878906 29.402344 C 9.726562 29.566406 9.703125 29.78125 9.945312 29.949219 C 10.222656 30.148438 10.621094 30.210938 10.902344 29.960938 C 11.125 29.761719 11.148438 29.601562 11.023438 29.445312 C 11.003906 29.542969 10.953125 29.636719 10.867188 29.710938 C 10.65625 29.898438 10.3125 29.910156 10.085938 29.75 Z M 10.085938 29.75 "/>
<path style=" stroke:none;fill-rule:nonzero;fill:rgb(1.176471%,1.176471%,1.176471%);fill-opacity:1;" d="M 9.457031 30.855469 L 9.453125 30.855469 C 9.351562 30.882812 9.238281 30.882812 9.136719 30.855469 L 9.132812 30.855469 C 9.058594 30.839844 8.988281 30.808594 8.925781 30.765625 C 8.804688 30.679688 8.734375 30.550781 8.71875 30.417969 C 8.597656 30.546875 8.558594 30.710938 8.667969 30.855469 C 8.699219 30.894531 8.734375 30.929688 8.785156 30.964844 C 9.0625 31.164062 9.460938 31.222656 9.742188 30.972656 C 9.785156 30.933594 9.824219 30.894531 9.851562 30.855469 C 9.96875 30.710938 9.964844 30.582031 9.863281 30.460938 C 9.84375 30.558594 9.792969 30.648438 9.707031 30.726562 C 9.636719 30.789062 9.546875 30.832031 9.457031 30.855469 Z M 9.457031 30.855469 "/>
<path style=" stroke:none;fill-rule:nonzero;fill:rgb(1.176471%,1.176471%,1.176471%);fill-opacity:1;" d="M 4.921875 29.949219 C 4.800781 29.863281 4.730469 29.738281 4.714844 29.601562 C 4.5625 29.765625 4.539062 29.980469 4.78125 30.152344 C 5.058594 30.347656 5.457031 30.410156 5.738281 30.160156 C 5.960938 29.960938 5.984375 29.800781 5.859375 29.644531 C 5.839844 29.742188 5.789062 29.835938 5.703125 29.910156 C 5.496094 30.097656 5.148438 30.113281 4.921875 29.949219 Z M 4.921875 29.949219 "/>
<path style=" stroke:none;fill-rule:nonzero;fill:rgb(1.176471%,1.176471%,1.176471%);fill-opacity:1;" d="M 15.824219 29.296875 L 14.070312 30.855469 L 12.996094 31.8125 L 15.570312 33.738281 C 15.601562 33.761719 15.621094 33.773438 15.65625 33.78125 L 15.695312 33.753906 L 18.46875 31.277344 L 17.910156 30.855469 L 15.898438 29.347656 C 15.894531 29.34375 15.835938 29.300781 15.824219 29.296875 Z M 15.824219 29.296875 "/>
<path style=" stroke:none;fill-rule:nonzero;fill:rgb(1.176471%,1.176471%,1.176471%);fill-opacity:1;" d="M 8.195312 29.613281 C 8.519531 29.324219 7.875 28.996094 7.546875 29.289062 C 7.222656 29.574219 7.867188 29.90625 8.195312 29.613281 Z M 8.195312 29.613281 "/>
<path style=" stroke:none;fill-rule:nonzero;fill:rgb(1.176471%,1.176471%,1.176471%);fill-opacity:1;" d="M 10.859375 28.964844 L 10.839844 28.964844 C 10.863281 28.984375 10.882812 29.003906 10.902344 29.023438 C 10.886719 29.003906 10.871094 28.984375 10.859375 28.964844 Z M 10.859375 28.964844 "/>
<path style=" stroke:none;fill-rule:nonzero;fill:rgb(1.176471%,1.176471%,1.176471%);fill-opacity:1;" d="M 12.199219 30.429688 C 12.523438 30.140625 11.878906 29.808594 11.550781 30.101562 C 11.226562 30.390625 11.871094 30.722656 12.199219 30.429688 Z M 12.199219 30.429688 "/>
<path style=" stroke:none;fill-rule:nonzero;fill:rgb(1.176471%,1.176471%,1.176471%);fill-opacity:1;" d="M 4.453125 30.726562 C 4.777344 30.4375 4.132812 30.109375 3.804688 30.402344 C 3.480469 30.6875 4.125 31.019531 4.453125 30.726562 Z M 4.453125 30.726562 "/>
<path style=" stroke:none;fill-rule:nonzero;fill:rgb(1.176471%,1.176471%,1.176471%);fill-opacity:1;" d="M 8.664062 28.835938 C 8.542969 28.75 8.472656 28.625 8.457031 28.488281 C 8.328125 28.628906 8.289062 28.808594 8.4375 28.964844 C 8.460938 28.988281 8.488281 29.011719 8.523438 29.039062 C 8.800781 29.234375 9.199219 29.296875 9.480469 29.046875 C 9.511719 29.019531 9.539062 28.992188 9.5625 28.964844 C 9.707031 28.800781 9.710938 28.664062 9.601562 28.53125 C 9.582031 28.628906 9.53125 28.722656 9.445312 28.796875 C 9.238281 28.984375 8.890625 29 8.664062 28.835938 Z M 8.664062 28.835938 "/>
<path style=" stroke:none;fill-rule:nonzero;fill:rgb(1.176471%,1.176471%,1.176471%);fill-opacity:1;" d="M 12.40625 27.722656 C 12.285156 27.636719 12.214844 27.511719 12.199219 27.375 C 12.046875 27.539062 12.023438 27.753906 12.265625 27.925781 C 12.542969 28.121094 12.941406 28.183594 13.222656 27.933594 C 13.445312 27.734375 13.46875 27.574219 13.34375 27.417969 C 13.324219 27.515625 13.273438 27.609375 13.1875 27.683594 C 12.980469 27.871094 12.632812 27.886719 12.40625 27.722656 Z M 12.40625 27.722656 "/>
<path style=" stroke:none;fill-rule:nonzero;fill:rgb(1.176471%,1.176471%,1.176471%);fill-opacity:1;" d="M 11.246094 28.738281 C 11.125 28.652344 11.054688 28.523438 11.039062 28.390625 C 10.886719 28.550781 10.863281 28.765625 11.105469 28.9375 C 11.117188 28.945312 11.128906 28.957031 11.144531 28.964844 C 11.414062 29.136719 11.773438 29.183594 12.039062 28.964844 L 12.042969 28.964844 C 12.046875 28.960938 12.054688 28.953125 12.0625 28.949219 C 12.285156 28.746094 12.308594 28.585938 12.183594 28.433594 C 12.164062 28.53125 12.113281 28.621094 12.027344 28.699219 C 11.820312 28.882812 11.472656 28.898438 11.246094 28.738281 Z M 11.246094 28.738281 "/>
<path style=" stroke:none;fill-rule:nonzero;fill:rgb(1.176471%,1.176471%,1.176471%);fill-opacity:1;" d="M 11.9375 28.5 C 12.261719 28.214844 11.621094 27.882812 11.289062 28.175781 C 10.964844 28.464844 11.609375 28.792969 11.9375 28.5 Z M 11.9375 28.5 "/>
<path style=" stroke:none;fill-rule:nonzero;fill:rgb(1.176471%,1.176471%,1.176471%);fill-opacity:1;" d="M 12.839844 25.558594 C 13.160156 25.273438 12.519531 24.941406 12.1875 25.234375 C 11.867188 25.523438 12.507812 25.851562 12.839844 25.558594 Z M 12.839844 25.558594 "/>
<path style=" stroke:none;fill-rule:nonzero;fill:rgb(1.176471%,1.176471%,1.176471%);fill-opacity:1;" d="M 13.304688 24.78125 C 13.183594 24.699219 13.113281 24.570312 13.097656 24.4375 C 12.949219 24.597656 12.921875 24.8125 13.164062 24.984375 C 13.445312 25.183594 13.839844 25.242188 14.121094 24.992188 C 14.347656 24.792969 14.371094 24.632812 14.242188 24.476562 C 14.222656 24.574219 14.171875 24.667969 14.085938 24.746094 C 13.878906 24.929688 13.535156 24.945312 13.304688 24.78125 Z M 13.304688 24.78125 "/>
<path style=" stroke:none;fill-rule:nonzero;fill:rgb(1.176471%,1.176471%,1.176471%);fill-opacity:1;" d="M 14.324219 23.96875 C 14.605469 24.167969 15 24.230469 15.28125 23.980469 C 15.507812 23.78125 15.53125 23.621094 15.402344 23.464844 C 15.382812 23.5625 15.332031 23.65625 15.246094 23.730469 C 15.039062 23.917969 14.695312 23.929688 14.464844 23.769531 C 14.347656 23.683594 14.273438 23.554688 14.257812 23.421875 C 14.109375 23.585938 14.082031 23.800781 14.324219 23.96875 Z M 14.324219 23.96875 "/>
<path style=" stroke:none;fill-rule:nonzero;fill:rgb(1.176471%,1.176471%,1.176471%);fill-opacity:1;" d="M 14 24.546875 C 14.320312 24.257812 13.679688 23.929688 13.347656 24.222656 C 13.027344 24.507812 13.667969 24.839844 14 24.546875 Z M 14 24.546875 "/>
<path style=" stroke:none;fill-rule:nonzero;fill:rgb(1.176471%,1.176471%,1.176471%);fill-opacity:1;" d="M 15.160156 23.535156 C 15.484375 23.246094 14.839844 22.914062 14.507812 23.207031 C 14.1875 23.496094 14.828125 23.828125 15.160156 23.535156 Z M 15.160156 23.535156 "/>
<path style=" stroke:none;fill-rule:nonzero;fill:rgb(1.176471%,1.176471%,1.176471%);fill-opacity:1;" d="M 9.355469 28.601562 C 9.679688 28.3125 9.039062 27.980469 8.707031 28.273438 C 8.382812 28.5625 9.027344 28.894531 9.355469 28.601562 Z M 9.355469 28.601562 "/>
<path style=" stroke:none;fill-rule:nonzero;fill:rgb(1.176471%,1.176471%,1.176471%);fill-opacity:1;" d="M 12.277344 3.191406 L 12.222656 3.238281 C 12.472656 3.25 12.457031 3.511719 12.457031 4.050781 L 12.457031 17.09375 C 12.457031 17.550781 12.25 18.117188 11.996094 18.347656 L 2.207031 27.226562 C 1.875 27.503906 1.878906 27.515625 1.761719 27.527344 C 1.773438 27.550781 1.789062 27.574219 1.804688 27.59375 L 1.824219 27.605469 L 1.835938 27.609375 C 1.871094 27.632812 1.914062 27.625 1.964844 27.601562 C 1.988281 27.585938 2.3125 27.3125 2.3125 27.3125 L 12.054688 18.476562 C 12.339844 18.21875 12.570312 17.601562 12.570312 17.09375 L 12.570312 4.050781 C 12.570312 3.6875 12.570312 3.476562 12.546875 3.351562 C 12.46875 3.058594 12.277344 3.191406 12.277344 3.191406 Z M 12.277344 3.191406 "/>
<path style=" stroke:none;fill-rule:nonzero;fill:rgb(1.176471%,1.176471%,1.176471%);fill-opacity:1;" d="M 10.519531 27.585938 C 10.839844 27.300781 10.199219 26.96875 9.867188 27.261719 C 9.542969 27.550781 10.1875 27.878906 10.519531 27.585938 Z M 10.519531 27.585938 "/>
<path style=" stroke:none;fill-rule:nonzero;fill:rgb(1.176471%,1.176471%,1.176471%);fill-opacity:1;" d="M 13.097656 27.488281 C 13.421875 27.199219 12.78125 26.867188 12.449219 27.164062 C 12.125 27.449219 12.769531 27.78125 13.097656 27.488281 Z M 13.097656 27.488281 "/>
<path style=" stroke:none;fill-rule:nonzero;fill:rgb(1.176471%,1.176471%,1.176471%);fill-opacity:1;" d="M 10.984375 26.808594 C 10.863281 26.722656 10.792969 26.597656 10.777344 26.464844 C 10.625 26.625 10.601562 26.839844 10.84375 27.011719 C 11.121094 27.210938 11.519531 27.269531 11.800781 27.019531 C 12.023438 26.820312 12.046875 26.660156 11.921875 26.503906 C 11.902344 26.601562 11.851562 26.695312 11.765625 26.769531 C 11.558594 26.957031 11.214844 26.972656 10.984375 26.808594 Z M 10.984375 26.808594 "/>
<path style=" stroke:none;fill-rule:nonzero;fill:rgb(1.176471%,1.176471%,1.176471%);fill-opacity:1;" d="M 9.824219 27.824219 C 9.703125 27.738281 9.632812 27.609375 9.617188 27.476562 C 9.464844 27.636719 9.441406 27.851562 9.683594 28.023438 C 9.960938 28.222656 10.359375 28.285156 10.640625 28.035156 C 10.863281 27.832031 10.886719 27.671875 10.761719 27.519531 C 10.742188 27.617188 10.691406 27.710938 10.605469 27.785156 C 10.398438 27.972656 10.050781 27.984375 9.824219 27.824219 Z M 9.824219 27.824219 "/>
<path style=" stroke:none;fill-rule:nonzero;fill:rgb(1.176471%,1.176471%,1.176471%);fill-opacity:1;" d="M 11.679688 26.574219 C 12 26.285156 11.359375 25.953125 11.027344 26.25 C 10.707031 26.535156 11.347656 26.867188 11.679688 26.574219 Z M 11.679688 26.574219 "/>
<path style=" stroke:none;fill-rule:nonzero;fill:rgb(1.176471%,1.176471%,1.176471%);fill-opacity:1;" d="M 12.144531 25.796875 C 12.023438 25.710938 11.953125 25.582031 11.9375 25.449219 C 11.789062 25.609375 11.761719 25.828125 12.003906 25.996094 C 12.285156 26.195312 12.679688 26.257812 12.960938 26.007812 C 13.1875 25.804688 13.207031 25.648438 13.082031 25.492188 C 13.0625 25.589844 13.011719 25.683594 12.925781 25.757812 C 12.71875 25.945312 12.375 25.957031 12.144531 25.796875 Z M 12.144531 25.796875 "/>
<path style=" stroke:none;fill-rule:nonzero;fill:rgb(1.176471%,1.176471%,1.176471%);fill-opacity:1;" d="M 16.582031 24.445312 C 16.902344 24.160156 16.261719 23.828125 15.929688 24.121094 C 15.609375 24.410156 16.25 24.742188 16.582031 24.445312 Z M 16.582031 24.445312 "/>
<path style=" stroke:none;fill-rule:nonzero;fill:rgb(1.176471%,1.176471%,1.176471%);fill-opacity:1;" d="M 9.097656 26.671875 C 9.417969 26.386719 8.777344 26.054688 8.445312 26.347656 C 8.125 26.636719 8.765625 26.964844 9.097656 26.671875 Z M 9.097656 26.671875 "/>
<path style=" stroke:none;fill-rule:nonzero;fill:rgb(1.176471%,1.176471%,1.176471%);fill-opacity:1;" d="M 8.402344 26.910156 C 8.28125 26.824219 8.210938 26.695312 8.195312 26.5625 C 8.046875 26.722656 8.019531 26.9375 8.261719 27.109375 C 8.542969 27.308594 8.9375 27.371094 9.21875 27.121094 C 9.445312 26.917969 9.464844 26.761719 9.339844 26.605469 C 9.320312 26.703125 9.269531 26.796875 9.183594 26.871094 C 8.976562 27.058594 8.632812 27.070312 8.402344 26.910156 Z M 8.402344 26.910156 "/>
<path style=" stroke:none;fill-rule:nonzero;fill:rgb(1.176471%,1.176471%,1.176471%);fill-opacity:1;" d="M 9.5625 25.894531 C 9.441406 25.808594 9.371094 25.683594 9.355469 25.550781 C 9.207031 25.710938 9.179688 25.925781 9.421875 26.097656 C 9.703125 26.296875 10.097656 26.355469 10.378906 26.105469 C 10.605469 25.90625 10.628906 25.746094 10.5 25.589844 C 10.480469 25.6875 10.429688 25.78125 10.34375 25.859375 C 10.136719 26.042969 9.792969 26.058594 9.5625 25.894531 Z M 9.5625 25.894531 "/>
<path style=" stroke:none;fill-rule:nonzero;fill:rgb(1.176471%,1.176471%,1.176471%);fill-opacity:1;" d="M 7.242188 27.921875 C 7.121094 27.835938 7.050781 27.710938 7.035156 27.574219 C 6.882812 27.738281 6.859375 27.953125 7.101562 28.125 C 7.378906 28.320312 7.777344 28.382812 8.058594 28.132812 C 8.28125 27.933594 8.304688 27.773438 8.179688 27.617188 C 8.160156 27.714844 8.109375 27.808594 8.023438 27.882812 C 7.816406 28.070312 7.472656 28.085938 7.242188 27.921875 Z M 7.242188 27.921875 "/>
<path style=" stroke:none;fill-rule:nonzero;fill:rgb(1.176471%,1.176471%,1.176471%);fill-opacity:1;" d="M 6.777344 28.699219 C 7.097656 28.414062 6.457031 28.082031 6.125 28.375 C 5.800781 28.660156 6.445312 28.992188 6.777344 28.699219 Z M 6.777344 28.699219 "/>
<path style=" stroke:none;fill-rule:nonzero;fill:rgb(1.176471%,1.176471%,1.176471%);fill-opacity:1;" d="M 10.257812 25.660156 C 10.578125 25.371094 9.9375 25.042969 9.605469 25.335938 C 9.285156 25.621094 9.925781 25.953125 10.257812 25.660156 Z M 10.257812 25.660156 "/>
<path style=" stroke:none;fill-rule:nonzero;fill:rgb(1.176471%,1.176471%,1.176471%);fill-opacity:1;" d="M 13.566406 26.710938 C 13.445312 26.625 13.375 26.496094 13.359375 26.363281 C 13.207031 26.523438 13.183594 26.738281 13.425781 26.910156 C 13.703125 27.109375 14.101562 27.171875 14.382812 26.921875 C 14.605469 26.71875 14.628906 26.5625 14.503906 26.40625 C 14.484375 26.503906 14.433594 26.597656 14.347656 26.671875 C 14.140625 26.859375 13.796875 26.871094 13.566406 26.710938 Z M 13.566406 26.710938 "/>
<path style=" stroke:none;fill-rule:nonzero;fill:rgb(1.176471%,1.176471%,1.176471%);fill-opacity:1;" d="M 12.902344 23.054688 C 13.183594 23.253906 13.578125 23.316406 13.859375 23.066406 C 14.085938 22.867188 14.109375 22.707031 13.980469 22.550781 C 13.960938 22.648438 13.910156 22.742188 13.824219 22.816406 C 13.617188 23.003906 13.273438 23.015625 13.042969 22.855469 C 12.925781 22.769531 12.851562 22.640625 12.835938 22.507812 C 12.6875 22.671875 12.660156 22.886719 12.902344 23.054688 Z M 12.902344 23.054688 "/>
<path style=" stroke:none;fill-rule:nonzero;fill:rgb(1.176471%,1.176471%,1.176471%);fill-opacity:1;" d="M 12.578125 23.632812 C 12.902344 23.34375 12.257812 23.015625 11.929688 23.308594 C 11.605469 23.59375 12.246094 23.925781 12.578125 23.632812 Z M 12.578125 23.632812 "/>
<path style=" stroke:none;fill-rule:nonzero;fill:rgb(1.176471%,1.176471%,1.176471%);fill-opacity:1;" d="M 13.738281 22.621094 C 14.0625 22.332031 13.417969 22 13.089844 22.292969 C 12.765625 22.582031 13.410156 22.914062 13.738281 22.621094 Z M 13.738281 22.621094 "/>
<path style=" stroke:none;fill-rule:nonzero;fill:rgb(1.176471%,1.176471%,1.176471%);fill-opacity:1;" d="M 11.417969 24.644531 C 11.738281 24.359375 11.097656 24.027344 10.765625 24.320312 C 10.445312 24.609375 11.085938 24.941406 11.417969 24.644531 Z M 11.417969 24.644531 "/>
<path style=" stroke:none;fill-rule:nonzero;fill:rgb(1.176471%,1.176471%,1.176471%);fill-opacity:1;" d="M 10.722656 24.882812 C 10.605469 24.796875 10.53125 24.667969 10.515625 24.535156 C 10.367188 24.695312 10.339844 24.914062 10.582031 25.082031 C 10.863281 25.28125 11.257812 25.34375 11.539062 25.09375 C 11.765625 24.894531 11.789062 24.734375 11.660156 24.578125 C 11.640625 24.675781 11.589844 24.769531 11.503906 24.84375 C 11.296875 25.03125 10.953125 25.042969 10.722656 24.882812 Z M 10.722656 24.882812 "/>
<path style=" stroke:none;fill-rule:nonzero;fill:rgb(1.176471%,1.176471%,1.176471%);fill-opacity:1;" d="M 11.882812 23.871094 C 11.765625 23.785156 11.691406 23.65625 11.675781 23.523438 C 11.527344 23.683594 11.5 23.898438 11.742188 24.070312 C 12.023438 24.269531 12.417969 24.328125 12.699219 24.078125 C 12.925781 23.878906 12.949219 23.71875 12.820312 23.566406 C 12.800781 23.660156 12.75 23.753906 12.664062 23.832031 C 12.457031 24.015625 12.113281 24.03125 11.882812 23.871094 Z M 11.882812 23.871094 "/>
<path style=" stroke:none;fill-rule:nonzero;fill:rgb(1.176471%,1.176471%,1.176471%);fill-opacity:1;" d="M 7.9375 27.6875 C 8.257812 27.398438 7.617188 27.066406 7.285156 27.359375 C 6.964844 27.648438 7.605469 27.980469 7.9375 27.6875 Z M 7.9375 27.6875 "/>
<path style=" stroke:none;fill-rule:nonzero;fill:rgb(1.176471%,1.176471%,1.176471%);fill-opacity:1;" d="M 14.988281 27.625 C 14.867188 27.539062 14.796875 27.410156 14.78125 27.277344 C 14.628906 27.4375 14.605469 27.652344 14.847656 27.824219 C 15.125 28.023438 15.523438 28.085938 15.804688 27.835938 C 16.027344 27.632812 16.050781 27.472656 15.925781 27.320312 C 15.90625 27.417969 15.855469 27.507812 15.769531 27.585938 C 15.5625 27.773438 15.214844 27.785156 14.988281 27.625 Z M 14.988281 27.625 "/>
<path style=" stroke:none;fill-rule:nonzero;fill:rgb(1.176471%,1.176471%,1.176471%);fill-opacity:1;" d="M 14.519531 28.402344 C 14.84375 28.113281 14.199219 27.78125 13.871094 28.074219 C 13.546875 28.363281 14.191406 28.695312 14.519531 28.402344 Z M 14.519531 28.402344 "/>
<path style=" stroke:none;fill-rule:nonzero;fill:rgb(1.176471%,1.176471%,1.176471%);fill-opacity:1;" d="M 15.746094 24.882812 C 16.027344 25.082031 16.421875 25.144531 16.703125 24.894531 C 16.929688 24.695312 16.953125 24.535156 16.824219 24.378906 C 16.804688 24.476562 16.753906 24.570312 16.667969 24.644531 C 16.460938 24.832031 16.117188 24.84375 15.886719 24.683594 C 15.765625 24.597656 15.695312 24.46875 15.679688 24.335938 C 15.53125 24.496094 15.503906 24.714844 15.746094 24.882812 Z M 15.746094 24.882812 "/>
<path style=" stroke:none;fill-rule:nonzero;fill:rgb(1.176471%,1.176471%,1.176471%);fill-opacity:1;" d="M 14.726562 25.695312 C 14.605469 25.609375 14.535156 25.484375 14.519531 25.351562 C 14.367188 25.511719 14.34375 25.726562 14.585938 25.898438 C 14.863281 26.097656 15.261719 26.15625 15.542969 25.90625 C 15.769531 25.707031 15.789062 25.546875 15.664062 25.390625 C 15.644531 25.488281 15.59375 25.582031 15.507812 25.660156 C 15.300781 25.84375 14.957031 25.859375 14.726562 25.695312 Z M 14.726562 25.695312 "/>
<path style=" stroke:none;fill-rule:nonzero;fill:rgb(1.176471%,1.176471%,1.176471%);fill-opacity:1;" d="M 15.421875 25.460938 C 15.742188 25.171875 15.101562 24.84375 14.769531 25.136719 C 14.449219 25.421875 15.089844 25.753906 15.421875 25.460938 Z M 15.421875 25.460938 "/>
<path style=" stroke:none;fill-rule:nonzero;fill:rgb(1.176471%,1.176471%,1.176471%);fill-opacity:1;" d="M 15.679688 27.386719 C 16.003906 27.101562 15.363281 26.769531 15.03125 27.0625 C 14.707031 27.347656 15.351562 27.679688 15.679688 27.386719 Z M 15.679688 27.386719 "/>
<path style=" stroke:none;fill-rule:nonzero;fill:rgb(1.176471%,1.176471%,1.176471%);fill-opacity:1;" d="M 18.003906 25.359375 C 18.324219 25.074219 17.683594 24.742188 17.351562 25.035156 C 17.03125 25.324219 17.671875 25.652344 18.003906 25.359375 Z M 18.003906 25.359375 "/>
<path style=" stroke:none;fill-rule:nonzero;fill:rgb(1.176471%,1.176471%,1.176471%);fill-opacity:1;" d="M 14.261719 26.472656 C 14.582031 26.1875 13.941406 25.855469 13.609375 26.148438 C 13.285156 26.4375 13.929688 26.765625 14.261719 26.472656 Z M 14.261719 26.472656 "/>
<path style=" stroke:none;fill-rule:nonzero;fill:rgb(1.176471%,1.176471%,1.176471%);fill-opacity:1;" d="M 17.167969 25.796875 C 17.449219 25.996094 17.84375 26.058594 18.125 25.808594 C 18.347656 25.609375 18.371094 25.449219 18.246094 25.292969 C 18.226562 25.390625 18.175781 25.484375 18.089844 25.558594 C 17.882812 25.746094 17.539062 25.757812 17.308594 25.597656 C 17.1875 25.511719 17.117188 25.382812 17.101562 25.25 C 16.949219 25.410156 16.925781 25.625 17.167969 25.796875 Z M 17.167969 25.796875 "/>
<path style=" stroke:none;fill-rule:nonzero;fill:rgb(1.176471%,1.176471%,1.176471%);fill-opacity:1;" d="M 16.148438 26.609375 C 16.027344 26.523438 15.957031 26.398438 15.941406 26.261719 C 15.789062 26.425781 15.765625 26.640625 16.007812 26.8125 C 16.285156 27.007812 16.683594 27.070312 16.964844 26.820312 C 17.1875 26.621094 17.210938 26.460938 17.085938 26.304688 C 17.066406 26.402344 17.015625 26.496094 16.929688 26.570312 C 16.722656 26.757812 16.375 26.773438 16.148438 26.609375 Z M 16.148438 26.609375 "/>
<path style=" stroke:none;fill-rule:nonzero;fill:rgb(1.176471%,1.176471%,1.176471%);fill-opacity:1;" d="M 16.84375 26.375 C 17.164062 26.085938 16.523438 25.757812 16.191406 26.050781 C 15.867188 26.335938 16.511719 26.667969 16.84375 26.375 Z M 16.84375 26.375 "/>
<path style=" stroke:none;fill-rule:nonzero;fill:rgb(1.176471%,1.176471%,1.176471%);fill-opacity:1;" d="M 7.085938 30.855469 L 7.085938 30.859375 C 6.875 31.011719 6.558594 31.015625 6.34375 30.863281 C 6.339844 30.863281 6.339844 30.859375 6.335938 30.855469 C 6.21875 30.773438 6.152344 30.648438 6.136719 30.515625 C 6.042969 30.617188 5.996094 30.738281 6.035156 30.855469 C 6.058594 30.929688 6.109375 31 6.203125 31.0625 C 6.480469 31.261719 6.878906 31.324219 7.160156 31.074219 C 7.246094 30.996094 7.304688 30.925781 7.332031 30.855469 C 7.378906 30.75 7.359375 30.652344 7.28125 30.558594 C 7.261719 30.65625 7.210938 30.75 7.125 30.824219 C 7.113281 30.835938 7.097656 30.847656 7.085938 30.855469 Z M 7.085938 30.855469 "/>
<g clip-path="url(#clip3)" clip-rule="nonzero">
<path style=" stroke:none;fill-rule:nonzero;fill:rgb(1.176471%,1.176471%,1.176471%);fill-opacity:1;" d="M 23.300781 27.660156 L 12.972656 20.332031 C 12.839844 20.234375 12.730469 20.179688 12.632812 20.15625 L 12.632812 20.105469 L 12.980469 19.789062 C 13.246094 19.546875 13.464844 18.960938 13.464844 18.484375 L 13.464844 0.816406 C 13.464844 0.535156 13.390625 0.363281 13.28125 0.3125 C 12.914062 0.105469 12.574219 -0.160156 12.167969 0.125 L 11.976562 0.28125 L 0.640625 10.550781 C 0.34375 10.820312 0.113281 11.449219 0.113281 11.96875 L 0.113281 29.640625 C 0.128906 30.339844 0.378906 30.359375 0.746094 30.578125 L 0.859375 30.644531 C 0.851562 30.707031 0.84375 30.777344 0.832031 30.855469 C 0.8125 31.023438 0.792969 31.214844 0.777344 31.414062 C 0.753906 31.726562 0.910156 31.984375 0.886719 32.300781 L 0.875 32.457031 C 0.867188 32.59375 0.890625 32.714844 0.984375 32.777344 L 4.949219 35.589844 L 11.3125 40.101562 C 11.621094 40.324219 12.09375 40.300781 12.375 40.050781 L 17.390625 35.589844 L 22.710938 30.855469 L 23.214844 30.410156 C 23.394531 30.246094 23.414062 29.613281 23.429688 29.347656 C 23.484375 29.269531 23.476562 29.113281 23.476562 29.113281 L 23.484375 28.964844 L 23.519531 28.097656 C 23.523438 28.074219 23.523438 28.050781 23.523438 28.027344 C 23.515625 27.890625 23.441406 27.757812 23.300781 27.660156 Z M 18.800781 31.347656 L 15.8125 34.015625 C 15.699219 34.101562 15.652344 34.152344 15.464844 34.011719 L 12.746094 31.980469 C 12.632812 31.894531 12.625 31.78125 12.691406 31.714844 L 15.726562 29.015625 C 15.839844 28.925781 15.960938 29.042969 16.003906 29.074219 C 16.003906 29.074219 18.824219 31.191406 18.828125 31.199219 C 18.863281 31.234375 18.867188 31.289062 18.800781 31.347656 Z M 17.207031 24.894531 C 17.226562 24.875 17.242188 24.855469 17.265625 24.835938 C 17.472656 24.652344 17.816406 24.636719 18.046875 24.800781 C 18.109375 24.84375 18.15625 24.898438 18.191406 24.960938 C 18.515625 25.195312 18.648438 25.617188 18.210938 26.003906 C 17.832031 26.34375 17.265625 26.214844 16.984375 25.90625 C 17.003906 25.929688 17.019531 25.949219 17.03125 25.976562 C 17.355469 26.210938 17.488281 26.632812 17.050781 27.019531 C 16.671875 27.359375 16.105469 27.230469 15.824219 26.917969 C 15.84375 26.941406 15.859375 26.964844 15.871094 26.988281 C 16.195312 27.222656 16.328125 27.648438 15.890625 28.03125 C 15.511719 28.371094 14.941406 28.242188 14.664062 27.933594 C 14.683594 27.953125 14.699219 27.976562 14.710938 28.003906 C 15.011719 28.21875 15.148438 28.601562 14.816406 28.964844 C 14.789062 28.992188 14.761719 29.019531 14.730469 29.046875 C 14.359375 29.378906 13.804688 29.261719 13.519531 28.964844 C 13.515625 28.957031 13.507812 28.953125 13.503906 28.949219 C 13.507812 28.953125 13.511719 28.957031 13.515625 28.964844 L 13.519531 28.964844 C 13.53125 28.980469 13.542969 29 13.550781 29.015625 C 13.875 29.25 14.007812 29.671875 13.570312 30.058594 C 13.191406 30.398438 12.621094 30.269531 12.34375 29.960938 C 12.363281 29.980469 12.378906 30.003906 12.390625 30.027344 C 12.65625 30.222656 12.789062 30.539062 12.59375 30.859375 C 12.550781 30.929688 12.492188 31.003906 12.410156 31.074219 C 12.03125 31.414062 11.460938 31.285156 11.183594 30.972656 C 11.203125 30.996094 11.21875 31.019531 11.230469 31.042969 C 11.554688 31.277344 11.683594 31.699219 11.25 32.085938 C 10.871094 32.425781 10.300781 32.296875 10.023438 31.988281 C 10.042969 32.007812 10.058594 32.03125 10.070312 32.054688 C 10.394531 32.292969 10.523438 32.714844 10.089844 33.101562 C 9.710938 33.441406 9.140625 33.3125 8.863281 33 C 8.878906 33.023438 8.894531 33.046875 8.910156 33.070312 C 9.234375 33.304688 9.363281 33.726562 8.929688 34.113281 C 8.25 34.71875 6.972656 33.835938 7.8125 33.085938 C 7.847656 33.054688 7.886719 33.027344 7.925781 33.003906 C 7.941406 32.984375 7.960938 32.964844 7.980469 32.945312 C 8.191406 32.761719 8.535156 32.746094 8.761719 32.90625 C 8.792969 32.929688 8.820312 32.953125 8.84375 32.980469 C 8.640625 32.738281 8.613281 32.394531 8.972656 32.074219 C 9.007812 32.042969 9.046875 32.015625 9.085938 31.988281 C 9.101562 31.96875 9.121094 31.949219 9.140625 31.933594 C 9.351562 31.746094 9.695312 31.734375 9.921875 31.894531 C 9.953125 31.914062 9.980469 31.941406 10.003906 31.964844 C 9.800781 31.722656 9.773438 31.378906 10.132812 31.0625 C 10.171875 31.027344 10.207031 31 10.246094 30.976562 C 10.261719 30.957031 10.28125 30.9375 10.300781 30.917969 C 10.328125 30.894531 10.355469 30.875 10.386719 30.859375 C 10.582031 30.738281 10.851562 30.738281 11.050781 30.859375 C 11.0625 30.867188 11.070312 30.875 11.082031 30.882812 C 11.113281 30.902344 11.140625 30.925781 11.164062 30.953125 C 11.140625 30.921875 11.117188 30.890625 11.097656 30.859375 C 10.960938 30.625 10.980469 30.328125 11.292969 30.046875 C 11.332031 30.015625 11.367188 29.988281 11.40625 29.964844 C 11.421875 29.945312 11.441406 29.925781 11.460938 29.90625 C 11.671875 29.71875 12.015625 29.707031 12.242188 29.867188 C 12.273438 29.890625 12.300781 29.914062 12.324219 29.9375 C 12.125 29.695312 12.097656 29.351562 12.453125 29.035156 C 12.484375 29.007812 12.511719 28.984375 12.542969 28.964844 C 12.550781 28.960938 12.558594 28.957031 12.566406 28.949219 C 12.585938 28.929688 12.601562 28.910156 12.621094 28.894531 C 12.832031 28.707031 13.175781 28.691406 13.402344 28.855469 C 13.433594 28.875 13.460938 28.898438 13.484375 28.925781 C 13.285156 28.683594 13.257812 28.339844 13.613281 28.019531 C 13.652344 27.988281 13.6875 27.960938 13.726562 27.9375 C 13.746094 27.917969 13.761719 27.898438 13.785156 27.878906 C 13.992188 27.695312 14.335938 27.679688 14.5625 27.839844 C 14.59375 27.863281 14.621094 27.886719 14.644531 27.914062 C 14.445312 27.671875 14.417969 27.328125 14.773438 27.007812 C 14.8125 26.976562 14.847656 26.945312 14.886719 26.921875 C 14.90625 26.902344 14.921875 26.882812 14.945312 26.867188 C 15.152344 26.679688 15.496094 26.667969 15.726562 26.828125 C 15.753906 26.847656 15.78125 26.871094 15.804688 26.898438 C 15.605469 26.65625 15.578125 26.3125 15.9375 25.992188 C 15.972656 25.960938 16.007812 25.933594 16.046875 25.910156 C 16.066406 25.890625 16.082031 25.871094 16.105469 25.851562 C 16.3125 25.667969 16.65625 25.652344 16.886719 25.816406 C 16.914062 25.835938 16.941406 25.859375 16.964844 25.886719 C 16.765625 25.644531 16.738281 25.300781 17.097656 24.980469 C 17.132812 24.945312 17.167969 24.917969 17.207031 24.894531 Z M 15.789062 23.980469 C 15.804688 23.960938 15.824219 23.941406 15.84375 23.921875 C 16.050781 23.738281 16.394531 23.722656 16.625 23.886719 C 16.6875 23.929688 16.734375 23.984375 16.769531 24.046875 C 17.09375 24.28125 17.226562 24.707031 16.792969 25.09375 C 16.410156 25.429688 15.84375 25.300781 15.5625 24.992188 C 15.582031 25.015625 15.597656 25.039062 15.609375 25.0625 C 15.933594 25.296875 16.066406 25.71875 15.632812 26.105469 C 15.25 26.445312 14.683594 26.316406 14.402344 26.007812 C 14.421875 26.027344 14.4375 26.050781 14.449219 26.074219 C 14.773438 26.308594 14.90625 26.734375 14.46875 27.117188 C 14.089844 27.457031 13.523438 27.328125 13.242188 27.019531 C 13.261719 27.042969 13.277344 27.066406 13.289062 27.089844 C 13.613281 27.324219 13.746094 27.746094 13.308594 28.132812 C 12.929688 28.472656 12.363281 28.34375 12.082031 28.035156 C 12.101562 28.054688 12.117188 28.078125 12.128906 28.101562 C 12.402344 28.300781 12.539062 28.632812 12.3125 28.964844 C 12.269531 29.027344 12.21875 29.085938 12.148438 29.148438 C 11.769531 29.484375 11.199219 29.355469 10.921875 29.046875 C 10.941406 29.070312 10.957031 29.089844 10.96875 29.117188 C 11.292969 29.351562 11.425781 29.773438 10.988281 30.160156 C 10.609375 30.5 10.039062 30.371094 9.761719 30.0625 C 9.78125 30.082031 9.796875 30.105469 9.808594 30.128906 C 10.046875 30.300781 10.179688 30.574219 10.0625 30.859375 C 10.023438 30.964844 9.945312 31.070312 9.828125 31.171875 C 9.449219 31.511719 8.878906 31.382812 8.601562 31.074219 C 8.621094 31.097656 8.636719 31.117188 8.648438 31.144531 C 8.972656 31.378906 9.101562 31.800781 8.667969 32.1875 C 8.289062 32.527344 7.71875 32.398438 7.441406 32.085938 C 7.460938 32.109375 7.476562 32.132812 7.488281 32.15625 C 7.8125 32.390625 7.941406 32.8125 7.507812 33.199219 C 6.828125 33.804688 5.550781 32.921875 6.390625 32.171875 C 6.425781 32.140625 6.464844 32.113281 6.503906 32.089844 C 6.519531 32.070312 6.539062 32.050781 6.558594 32.03125 C 6.769531 31.847656 7.113281 31.832031 7.339844 31.996094 C 7.371094 32.015625 7.398438 32.039062 7.421875 32.066406 C 7.21875 31.824219 7.191406 31.480469 7.550781 31.160156 C 7.589844 31.128906 7.625 31.101562 7.664062 31.078125 C 7.679688 31.054688 7.699219 31.039062 7.71875 31.019531 C 7.929688 30.832031 8.273438 30.820312 8.5 30.980469 C 8.53125 31.003906 8.558594 31.027344 8.582031 31.050781 C 8.535156 30.992188 8.496094 30.929688 8.46875 30.859375 C 8.390625 30.644531 8.441406 30.386719 8.710938 30.148438 C 8.75 30.113281 8.785156 30.085938 8.824219 30.0625 C 8.839844 30.042969 8.859375 30.023438 8.878906 30.003906 C 9.089844 29.820312 9.433594 29.804688 9.660156 29.96875 C 9.691406 29.988281 9.71875 30.011719 9.742188 30.039062 C 9.542969 29.796875 9.515625 29.453125 9.871094 29.132812 C 9.910156 29.101562 9.945312 29.074219 9.984375 29.050781 C 10.003906 29.03125 10.019531 29.011719 10.042969 28.992188 C 10.050781 28.984375 10.0625 28.972656 10.074219 28.964844 C 10.285156 28.804688 10.605469 28.800781 10.824219 28.953125 C 10.828125 28.957031 10.832031 28.960938 10.839844 28.964844 L 10.859375 28.964844 C 10.699219 28.726562 10.703125 28.414062 11.03125 28.121094 C 11.070312 28.089844 11.105469 28.058594 11.144531 28.035156 C 11.164062 28.015625 11.179688 27.996094 11.203125 27.980469 C 11.410156 27.792969 11.753906 27.777344 11.984375 27.941406 C 12.011719 27.960938 12.039062 27.984375 12.0625 28.011719 C 11.863281 27.769531 11.835938 27.425781 12.195312 27.105469 C 12.230469 27.074219 12.265625 27.046875 12.304688 27.023438 C 12.324219 27.003906 12.339844 26.984375 12.363281 26.964844 C 12.570312 26.78125 12.914062 26.765625 13.144531 26.925781 C 13.171875 26.949219 13.199219 26.972656 13.222656 27 C 13.023438 26.757812 12.996094 26.414062 13.355469 26.09375 C 13.390625 26.0625 13.425781 26.03125 13.46875 26.007812 C 13.484375 25.988281 13.5 25.96875 13.523438 25.953125 C 13.730469 25.765625 14.074219 25.753906 14.304688 25.914062 C 14.332031 25.933594 14.359375 25.960938 14.382812 25.984375 C 14.183594 25.742188 14.15625 25.398438 14.515625 25.082031 C 14.550781 25.046875 14.589844 25.019531 14.628906 24.996094 C 14.644531 24.976562 14.664062 24.957031 14.683594 24.9375 C 14.890625 24.753906 15.234375 24.738281 15.464844 24.902344 C 15.492188 24.921875 15.519531 24.945312 15.546875 24.972656 C 15.34375 24.730469 15.316406 24.386719 15.675781 24.066406 C 15.710938 24.03125 15.75 24.003906 15.789062 23.980469 Z M 14.367188 23.066406 C 14.382812 23.046875 14.402344 23.027344 14.421875 23.011719 C 14.628906 22.824219 14.976562 22.808594 15.203125 22.972656 C 15.265625 23.015625 15.316406 23.070312 15.351562 23.132812 C 15.671875 23.367188 15.804688 23.792969 15.371094 24.179688 C 14.988281 24.515625 14.421875 24.386719 14.144531 24.078125 C 14.160156 24.101562 14.175781 24.125 14.1875 24.148438 C 14.511719 24.382812 14.644531 24.804688 14.210938 25.191406 C 13.828125 25.53125 13.261719 25.402344 12.980469 25.09375 C 13 25.113281 13.015625 25.136719 13.027344 25.160156 C 13.351562 25.394531 13.484375 25.820312 13.050781 26.207031 C 12.667969 26.542969 12.101562 26.414062 11.820312 26.105469 C 11.839844 26.128906 11.855469 26.152344 11.867188 26.175781 C 12.191406 26.410156 12.324219 26.832031 11.886719 27.21875 C 11.507812 27.558594 10.941406 27.429688 10.660156 27.121094 C 10.679688 27.140625 10.695312 27.164062 10.707031 27.1875 C 11.03125 27.421875 11.164062 27.847656 10.726562 28.234375 C 10.347656 28.570312 9.78125 28.441406 9.5 28.132812 C 9.519531 28.15625 9.535156 28.179688 9.546875 28.203125 C 9.792969 28.378906 9.929688 28.667969 9.789062 28.964844 C 9.742188 29.058594 9.671875 29.152344 9.566406 29.246094 C 9.1875 29.585938 8.621094 29.457031 8.339844 29.148438 C 8.359375 29.167969 8.375 29.191406 8.386719 29.214844 C 8.710938 29.449219 8.84375 29.875 8.40625 30.261719 C 8.027344 30.597656 7.457031 30.46875 7.179688 30.160156 C 7.199219 30.183594 7.214844 30.207031 7.226562 30.230469 C 7.433594 30.378906 7.5625 30.609375 7.511719 30.859375 C 7.484375 30.996094 7.402344 31.136719 7.246094 31.273438 C 6.867188 31.613281 6.296875 31.484375 6.019531 31.175781 C 6.039062 31.195312 6.054688 31.21875 6.066406 31.242188 C 6.390625 31.476562 6.519531 31.902344 6.085938 32.285156 C 5.40625 32.890625 4.128906 32.007812 4.96875 31.261719 C 5.003906 31.226562 5.042969 31.199219 5.082031 31.175781 C 5.097656 31.15625 5.117188 31.136719 5.136719 31.117188 C 5.347656 30.933594 5.691406 30.917969 5.917969 31.082031 C 5.949219 31.101562 5.976562 31.125 6 31.152344 C 5.929688 31.066406 5.878906 30.964844 5.859375 30.859375 C 5.828125 30.667969 5.898438 30.453125 6.128906 30.246094 C 6.167969 30.214844 6.203125 30.1875 6.242188 30.164062 C 6.257812 30.144531 6.277344 30.125 6.296875 30.105469 C 6.507812 29.917969 6.851562 29.90625 7.078125 30.066406 C 7.109375 30.089844 7.136719 30.113281 7.160156 30.136719 C 6.960938 29.894531 6.933594 29.550781 7.289062 29.234375 C 7.328125 29.199219 7.363281 29.171875 7.402344 29.148438 C 7.421875 29.128906 7.4375 29.109375 7.460938 29.09375 C 7.527344 29.03125 7.605469 28.992188 7.691406 28.964844 C 7.808594 28.933594 7.9375 28.933594 8.054688 28.964844 L 8.054688 28.96875 C 8.121094 28.984375 8.183594 29.015625 8.242188 29.054688 C 8.269531 29.074219 8.296875 29.097656 8.320312 29.125 C 8.28125 29.074219 8.246094 29.023438 8.222656 28.964844 C 8.125 28.746094 8.164062 28.472656 8.449219 28.21875 C 8.488281 28.1875 8.523438 28.160156 8.5625 28.136719 C 8.582031 28.117188 8.597656 28.097656 8.621094 28.078125 C 8.828125 27.894531 9.171875 27.878906 9.402344 28.039062 C 9.429688 28.0625 9.457031 28.085938 9.480469 28.113281 C 9.28125 27.871094 9.253906 27.527344 9.613281 27.207031 C 9.648438 27.175781 9.683594 27.148438 9.722656 27.121094 C 9.742188 27.101562 9.757812 27.082031 9.78125 27.066406 C 9.988281 26.878906 10.332031 26.867188 10.5625 27.027344 C 10.589844 27.046875 10.617188 27.074219 10.640625 27.097656 C 10.441406 26.855469 10.414062 26.511719 10.773438 26.191406 C 10.808594 26.160156 10.847656 26.132812 10.886719 26.109375 C 10.902344 26.089844 10.917969 26.070312 10.941406 26.050781 C 11.148438 25.867188 11.492188 25.851562 11.722656 26.015625 C 11.75 26.035156 11.777344 26.058594 11.800781 26.085938 C 11.601562 25.84375 11.574219 25.5 11.933594 25.179688 C 11.96875 25.148438 12.007812 25.121094 12.046875 25.097656 C 12.0625 25.074219 12.082031 25.058594 12.101562 25.039062 C 12.308594 24.851562 12.652344 24.839844 12.882812 25 C 12.910156 25.023438 12.9375 25.046875 12.964844 25.070312 C 12.761719 24.828125 12.734375 24.484375 13.09375 24.167969 C 13.128906 24.132812 13.167969 24.105469 13.207031 24.082031 C 13.222656 24.0625 13.242188 24.042969 13.261719 24.027344 C 13.46875 23.839844 13.8125 23.824219 14.042969 23.988281 C 14.074219 24.007812 14.097656 24.03125 14.125 24.058594 C 13.921875 23.816406 13.894531 23.472656 14.253906 23.152344 C 14.289062 23.117188 14.328125 23.089844 14.367188 23.066406 Z M 12.832031 22.238281 C 12.867188 22.203125 12.90625 22.175781 12.945312 22.152344 C 12.960938 22.132812 12.980469 22.113281 13 22.097656 C 13.207031 21.910156 13.554688 21.898438 13.78125 22.058594 C 13.84375 22.101562 13.894531 22.15625 13.929688 22.21875 C 14.25 22.453125 14.382812 22.878906 13.949219 23.265625 C 13.566406 23.601562 13 23.476562 12.722656 23.164062 C 12.738281 23.1875 12.753906 23.210938 12.769531 23.234375 C 13.089844 23.46875 13.222656 23.890625 12.789062 24.277344 C 12.40625 24.617188 11.839844 24.488281 11.558594 24.179688 C 11.578125 24.199219 11.59375 24.222656 11.605469 24.246094 C 11.929688 24.480469 12.0625 24.90625 11.628906 25.292969 C 11.246094 25.628906 10.679688 25.5 10.398438 25.191406 C 10.417969 25.214844 10.433594 25.238281 10.445312 25.261719 C 10.769531 25.496094 10.902344 25.917969 10.46875 26.304688 C 10.085938 26.644531 9.519531 26.515625 9.238281 26.207031 C 9.257812 26.226562 9.273438 26.25 9.285156 26.273438 C 9.609375 26.507812 9.742188 26.933594 9.304688 27.320312 C 8.925781 27.65625 8.359375 27.527344 8.078125 27.21875 C 8.097656 27.242188 8.113281 27.265625 8.125 27.289062 C 8.449219 27.523438 8.582031 27.945312 8.144531 28.332031 C 7.765625 28.671875 7.199219 28.542969 6.917969 28.234375 C 6.9375 28.253906 6.953125 28.277344 6.964844 28.300781 C 7.183594 28.460938 7.3125 28.703125 7.242188 28.964844 C 7.207031 29.089844 7.128906 29.21875 6.984375 29.347656 C 6.605469 29.683594 6.039062 29.554688 5.757812 29.246094 C 5.777344 29.269531 5.792969 29.292969 5.804688 29.316406 C 6.128906 29.550781 6.261719 29.972656 5.824219 30.359375 C 5.445312 30.699219 4.875 30.570312 4.597656 30.261719 C 4.617188 30.28125 4.632812 30.304688 4.644531 30.328125 C 4.824219 30.460938 4.945312 30.648438 4.941406 30.859375 C 4.9375 31.023438 4.855469 31.203125 4.664062 31.375 C 4.140625 31.839844 3.257812 31.417969 3.273438 30.859375 C 3.273438 30.695312 3.355469 30.515625 3.546875 30.347656 C 3.585938 30.316406 3.621094 30.285156 3.660156 30.261719 C 3.679688 30.242188 3.695312 30.222656 3.714844 30.207031 C 3.925781 30.019531 4.269531 30.003906 4.496094 30.167969 C 4.527344 30.1875 4.554688 30.210938 4.578125 30.238281 C 4.378906 29.996094 4.351562 29.652344 4.707031 29.332031 C 4.746094 29.300781 4.78125 29.273438 4.820312 29.25 C 4.839844 29.230469 4.855469 29.210938 4.878906 29.191406 C 5.085938 29.007812 5.429688 28.992188 5.660156 29.152344 C 5.6875 29.175781 5.714844 29.199219 5.738281 29.226562 C 5.675781 29.148438 5.628906 29.058594 5.605469 28.964844 C 5.558594 28.765625 5.625 28.535156 5.871094 28.320312 C 5.90625 28.289062 5.941406 28.257812 5.980469 28.234375 C 6 28.214844 6.015625 28.195312 6.039062 28.179688 C 6.246094 27.992188 6.589844 27.976562 6.820312 28.140625 C 6.847656 28.160156 6.875 28.183594 6.898438 28.210938 C 6.699219 27.96875 6.671875 27.625 7.03125 27.304688 C 7.066406 27.273438 7.101562 27.246094 7.140625 27.222656 C 7.160156 27.203125 7.175781 27.183594 7.199219 27.164062 C 7.40625 26.980469 7.75 26.964844 7.980469 27.125 C 8.007812 27.148438 8.035156 27.171875 8.058594 27.199219 C 7.859375 26.957031 7.832031 26.613281 8.191406 26.292969 C 8.226562 26.261719 8.265625 26.234375 8.304688 26.207031 C 8.320312 26.1875 8.339844 26.171875 8.359375 26.152344 C 8.566406 25.964844 8.910156 25.953125 9.140625 26.113281 C 9.167969 26.132812 9.195312 26.160156 9.21875 26.183594 C 9.019531 25.941406 8.992188 25.597656 9.351562 25.28125 C 9.386719 25.246094 9.425781 25.21875 9.464844 25.195312 C 9.480469 25.175781 9.5 25.15625 9.519531 25.136719 C 9.726562 24.953125 10.070312 24.9375 10.300781 25.101562 C 10.328125 25.121094 10.355469 25.144531 10.382812 25.171875 C 10.179688 24.929688 10.152344 24.585938 10.511719 24.265625 C 10.546875 24.234375 10.585938 24.207031 10.625 24.183594 C 10.640625 24.160156 10.660156 24.144531 10.679688 24.125 C 10.886719 23.9375 11.234375 23.925781 11.460938 24.085938 C 11.492188 24.109375 11.515625 24.132812 11.542969 24.15625 C 11.339844 23.914062 11.3125 23.570312 11.671875 23.253906 C 11.707031 23.21875 11.746094 23.191406 11.785156 23.167969 C 11.800781 23.148438 11.820312 23.128906 11.839844 23.113281 C 12.046875 22.925781 12.394531 22.910156 12.621094 23.074219 C 12.652344 23.09375 12.675781 23.117188 12.703125 23.144531 C 12.5 22.898438 12.472656 22.554688 12.832031 22.238281 Z M 12.746094 17.207031 C 12.746094 17.742188 12.511719 18.382812 12.207031 18.65625 L 2.167969 27.765625 C 1.8125 28.089844 1.507812 27.785156 1.507812 27.203125 L 1.507812 13.613281 C 1.507812 13.082031 1.746094 12.441406 2.050781 12.164062 L 12.085938 3.058594 C 12.445312 2.734375 12.746094 3.035156 12.746094 3.617188 Z M 23.453125 28.148438 C 23.453125 28.148438 23.449219 28.164062 23.4375 28.195312 C 23.316406 28.46875 22.921875 28.789062 22.742188 28.945312 L 12.390625 38.144531 C 12.144531 38.367188 11.714844 38.386719 11.4375 38.191406 L 7.769531 35.589844 L 1.109375 30.863281 C 1.105469 30.863281 1.101562 30.859375 1.101562 30.859375 C 1.078125 30.839844 1.054688 30.824219 1.035156 30.804688 C 0.945312 30.695312 0.953125 30.628906 0.945312 30.519531 C 0.941406 30.484375 0.910156 30.449219 0.859375 30.375 C 0.816406 30.289062 0.792969 30.164062 0.792969 30.003906 L 0.792969 12.335938 C 0.792969 11.859375 1.011719 11.273438 1.277344 11.03125 L 12.863281 0.519531 L 12.9375 0.457031 L 13.097656 0.3125 C 13.207031 0.214844 13.3125 0.445312 13.203125 0.542969 L 13.011719 0.714844 L 12.964844 0.753906 L 1.382812 11.265625 C 1.175781 11.453125 0.988281 11.945312 0.988281 12.335938 L 0.988281 30.003906 C 0.988281 30.289062 1.046875 30.289062 1.15625 30.1875 L 11.925781 20.417969 L 12.316406 20.078125 C 12.425781 19.980469 12.527344 20.214844 12.417969 20.3125 L 11.957031 20.714844 L 1.261719 30.417969 C 1.238281 30.441406 1.214844 30.457031 1.195312 30.472656 L 1.15625 30.492188 L 1.097656 30.527344 C 1.125 30.5625 1.152344 30.585938 1.195312 30.617188 L 1.535156 30.859375 L 8.207031 35.589844 L 11.523438 37.941406 C 11.746094 38.101562 12.101562 38.078125 12.289062 37.910156 L 14.898438 35.589844 L 20.222656 30.855469 L 22.949219 28.429688 L 23.042969 28.34375 C 23.113281 28.277344 23.222656 28.160156 23.269531 28.050781 C 23.324219 27.875 23.503906 27.980469 23.453125 28.148438 Z M 23.453125 28.148438 "/>
</g>
</g>
</svg>
